<?xml version="1.0" encoding="UTF-8"?>
<!DOCTYPE svg PUBLIC "-//W3C//DTD SVG 1.1//EN" "http://www.w3.org/Graphics/SVG/1.1/DTD/svg11.dtd">
<!-- Creator: CorelDRAW 2021 (64 Bit) -->
<svg xmlns="http://www.w3.org/2000/svg" xml:space="preserve" width="479.537mm" height="451.716mm" version="1.1" style="shape-rendering:geometricPrecision; text-rendering:geometricPrecision; image-rendering:optimizeQuality; fill-rule:evenodd; clip-rule:evenodd"
viewBox="0 0 25520.5 24039.9"
 xmlns:xlink="http://www.w3.org/1999/xlink"
 xmlns:xodm="http://www.corel.com/coreldraw/odm/2003">
 <defs>
  <style type="text/css">
   <![CDATA[
    .str0 {stroke:#336666;stroke-width:10.64;stroke-miterlimit:22.9256}
    .fil0 {fill:#111122}
    .fil11 {fill:#1E416C}
    .fil3 {fill:#336666}
    .fil12 {fill:#3D5C92}
    .fil1 {fill:#593136}
    .fil6 {fill:#669999}
    .fil5 {fill:#A45D53}
    .fil10 {fill:#D3B6B0}
    .fil7 {fill:#E97B55}
    .fil9 {fill:#EC8529}
    .fil2 {fill:#FAB585}
    .fil8 {fill:#FBD5B9}
    .fil4 {fill:#FEFEFE}
   ]]>
  </style>
 </defs>
 <g id="Camada_x0020_1">
  <metadata id="CorelCorpID_0Corel-Layer"/>
  <path class="fil0" d="M8076.13 21186.55c-5.87,174.05 -278.12,831.99 -351.48,1034.21l-80.31 171.27c-85.18,-27.05 -198.24,-83.94 -295.95,-123.99l-251.76 -108.99c-46.53,-32.83 -11.26,-4.67 -31.35,-34.46 -99.04,-11.78 -1000.98,-536.62 -1046.93,-588.31 17.36,-95.65 455.91,-694.84 549.06,-801.03 30.68,-34.97 50.49,-45.11 78.37,-81.45 91.27,-119.01 391.66,-419.71 475.39,-428.71 23.54,-41.67 10.6,-24.59 43.38,-57.87 2.08,-2.12 5.2,-5 7.3,-7l163.1 -127.78c80.2,-64.78 150.86,-113.35 235.43,-172.48 84.84,-59.34 440.1,-231.56 555.29,-245.2 2.01,2.59 5.4,3.23 6.23,7.63 2.01,10.73 18.28,4.08 33.37,65.5 39.31,159.98 180.17,648.12 173.9,724.11l-263.04 774.56zm7006.97 -744.51c284.64,254.54 245.78,241.51 458.8,481.15 51.46,57.9 367.66,491.06 381.92,567.19 56.36,47.79 155.47,246.67 180.1,308.14 -67.13,137.57 -783.42,592.35 -910.4,672.42 -169.07,106.61 -327.5,201.51 -508.81,293.15 -119.59,60.44 -446.57,237.82 -577.12,239.93l11.32 -317.88c4.28,-96.54 4.14,-64.1 16.75,-80.54l25.48 -676.04c-1.68,-191.55 8.63,-386.25 11.72,-582.65 4.59,-292.44 -161.17,-1543.28 -114.92,-1597.86 46.4,-54.75 245.73,85 289.16,112.61 144.22,91.67 374.1,260.76 493.9,378.45 33.82,33.22 71.65,73.06 115.7,105.07l126.41 96.87zm-6491.18 -741.39c-26.24,-58.68 -24.29,-65.34 -34.5,-146.49 -46.65,-370.7 64.78,-277.02 223.74,-245.95 -4.5,90.26 -38.38,147.34 -66.89,218.48 -62.72,156.53 -37.51,151.6 -122.36,173.96zm4610.41 -345.72c-6.68,13.81 -16.56,39.19 -20.13,45.76 -60.87,111.96 -161.16,159.22 -180.82,178.95 -18,18.05 -8.33,14.93 -31.4,40.94l-39.57 39.23c101.85,8.52 110.03,30.41 175.93,44.43 16.88,3.59 60.78,6.5 63.04,6.94 92.9,17.95 -41.7,32.55 164.86,32.81 28.15,0.03 0.91,-1.86 23.88,2.27 3.46,0.62 18.01,6.06 29.7,7.7 43.01,-18.5 74.21,-62.83 124.88,-85.44 51.15,-22.83 126.19,-35.98 178.68,-38.53l1.85 550.98c42.65,23.95 24.98,58.5 31.75,175.29 3.96,68.23 9.97,121.07 1.9,189.39 19.86,18.84 -28.8,14.66 42.58,7.9 31.5,92.34 57.51,75.02 70.14,126.54 4.56,18.55 8.59,79.08 8.85,99.68l6.08 81.58c41.1,151.92 24.83,660.46 -2.48,825.51 -22.53,136.14 -62.58,246.81 -78.83,359.6 -4.19,29.06 -2.77,65.19 -8.87,91.75 -13.41,58.41 -67.41,218.18 -128.65,275.52l-14.89 14.48c-21.34,20.99 10.93,16.78 -70.76,44.35 -56.98,19.23 -123.83,32.15 -169.24,49.42l-130.28 59.13c-4.29,1.71 -15.55,7.54 -20.05,8.99 -45.59,14.69 -41.23,0.61 -93.2,23.77 -3.09,1.39 -6.55,3.58 -9.55,5.05l-57.77 29.91c-37.63,18.03 -69.52,21.16 -92.93,68.39 -8.48,17.1 -5.76,20.2 -9.33,34l-70.71 104.03c-18.34,16.6 -8.16,-14.51 -32.95,35.13 -0.84,1.69 -1.17,6.24 -1.89,7.87 -14.86,33.33 -26.88,35.51 -67.25,73.13 -95.74,89.24 -51.52,22.56 -112.92,61.46 -24.12,15.28 -26.04,38.65 -43.92,58.3l-90.87 69.74c-29.3,25.74 -27.68,43.55 -56.23,58.83l-431.03 166.18c-89.39,19.63 21.41,16.16 -172.47,46.03 -17.5,2.7 -70.79,15.69 -96.68,20.62 -197.03,37.49 -763.29,-10.79 -1024.73,-59.94 -62.7,-11.79 -117.36,-21.29 -186.32,-34.99 -284.91,-56.6 -70.91,-82.78 -338.51,-91.58l57.47 -26.65c-42.22,4.03 -93.27,13.62 -133.57,14.63 -52.22,1.29 -94.85,-5.76 -133.12,-32.18 -279.35,-21.55 -1193.35,-321.74 -1501.64,-443.36 -100.92,-39.82 -391.18,-146.91 -459.59,-194.96l251.22 -751.83c28.24,-152.37 92.68,-336.55 135.74,-487.38 47.24,-165.45 98.75,-322.48 146.27,-481 74.02,-246.89 373.17,-1137.38 489.81,-1359.66 37.7,-71.84 70.27,-119.91 106.76,-198.71 168.95,-364.88 429.42,-579.13 758.9,-800.76 257.99,-173.54 526.7,-263.86 857.13,-381.8 352.27,-125.74 695.59,-118.85 1047.99,-5.05 538.85,174.03 679.09,363.72 979.79,565.19 96.97,64.98 342.92,402.97 365.18,568.07 21.07,41.03 0.61,71 -7.21,104.35zm3939.84 -3656.26c2.62,-2.87 6.18,-6.65 8.08,-8.39l117.7 -74.36c119.34,-62.06 283.08,-191.52 364.75,-229.17 16.27,-20.6 91.69,-80.04 118.7,-103.9 48.43,-42.79 74.95,-73.3 125.47,-118.47l196 -208.19c15.56,256.04 -113.03,737.92 -169.86,974.12 -147.56,613.33 -350.58,880.14 -714.52,1309.8 -118.64,140.05 -649.01,620.34 -759.57,646.67 -43.45,56.44 -197.06,150.77 -285.28,202.47l-609.94 336.72c-88.31,47.5 -226.28,129.42 -314.81,153.88 -87.71,79.79 -780.07,321.9 -955.55,384.52 -38.91,-0.58 -250.03,67.52 -308.44,82.68 -91.8,23.84 -242.56,63.58 -337.1,70.63 -84.15,-103.79 -158.14,-511.6 -845.64,-975.32 -358.23,-241.61 -759.51,-480.72 -1324.99,-486.51 -594.97,-6.09 -1008.14,131.34 -1446.78,365.85 -450.27,240.73 -693.73,490.04 -967.58,834.32 -20.25,44.81 -31.82,56.49 -59.54,86.47 -192.22,1.21 -948.66,-291.62 -1144.02,-372.82 -368.54,-153.18 -691.87,-304.16 -1016.8,-497.7 -517.26,-308.1 -879.45,-570.94 -1305.58,-967.85 -76.61,-71.36 -325.87,-317.44 -372.65,-392.89 -53.83,-66.64 -106.49,-113.42 -166.26,-189.85 -102.24,-130.72 -210.81,-285.28 -326.22,-402.26 -81.59,-82.7 -74.76,-117.63 -143.53,-205.78 -65.91,14.67 -58.26,45.08 -142.25,134.76 -354.08,377.97 -767.04,601.96 -1329.28,581.02 -700.43,-26.07 -1127.99,-287.38 -1581.79,-736.47 -298.09,-294.99 -609.65,-932.36 -696.67,-1338.44 -165.37,-771.64 -22.29,-1582.98 538.78,-2056.43 619.73,-522.96 1388.99,-224.9 1734.28,449.26 141.6,276.47 477.1,1455.49 653.58,1516.55 96.07,33.24 386.06,-59.74 429.01,-110.28 50.52,-59.44 79.01,-339.95 93.92,-439.15 33.47,-222.64 113.78,-2018.87 130.58,-2039.35 22.68,-32.89 -12.57,-12.16 31.95,-30.19l328.73 -27.98c37.42,821.13 156.43,1381.2 535.08,2088.75 114.88,214.68 212.74,358.15 341.2,532.9 29.17,39.67 70.64,85.76 100.33,118.75 99.01,110.05 201.46,242.6 313.09,341.66 453.01,401.96 1111.86,783.66 1767.95,839.92 553.79,47.5 1047.19,-8.47 1505.59,-215.56 238.54,-107.76 349.04,-162.38 571.07,-301.53 167.51,-105 365.46,-270.93 479.95,-394.06 130.5,-140.36 273.5,-288.42 391.1,-482.66 466.87,-771.09 556.16,-1079.54 637.85,-1971.71 519.22,-305.14 1012.43,-272.22 1524.63,46.22 33.3,371.96 -20.37,496.92 81.37,952.04 124.79,558.17 318.89,975.38 626.08,1429.79 164.43,243.22 127.26,158.12 228.99,280.73 169.91,204.8 639.44,545.95 889.43,654.29 576.53,249.85 1064.58,357.46 1706.72,228.67 146.47,-29.38 277.84,-64.96 404.42,-110.05 108.46,-38.63 264.5,-135.05 348.25,-156.1zm1100.42 589.7c33.01,-143.93 89.65,-283.72 123.12,-433.36 66.95,-299.27 106.24,-661.39 137.15,-968.27 55.19,-548.03 -52.68,-402.9 185.4,-938.89 110.76,-249.36 208.54,-575.18 266.27,-843.33l82.47 -469.69c119.5,-12.46 193.46,51.62 260.62,103.94 209.43,163.14 282.93,457.3 317.1,731.92 93.01,747.58 -184.04,1607.1 -606.54,2194.48 -105.4,146.53 -158.78,178.76 -245.39,279.24 -103.69,120.28 -361.77,345.35 -520.19,343.97zm-9912.99 -5990.56c502.23,48.67 1354.53,389.81 1759.63,694.3 188.02,141.32 448.85,401.86 553.13,673.12 315.79,821.53 13.17,1696.19 -420.32,2396.19 -41.49,67 -81.56,114.56 -128.56,177.34 -196.8,262.85 -512.96,524.02 -842.88,685.99 -218.08,107.07 -689.75,309.27 -941.04,281.68 -49.99,37.47 -262.11,17.68 -322.42,12.05 -278.15,-25.97 -561.11,-103.73 -810.25,-204.97 -239.15,-97.17 -690.35,-365.05 -820.02,-538.82 -66.18,-62.56 -152.62,-142.83 -205.36,-207.63 -33.59,-46.18 -78.18,-82.07 -116.9,-138.08 -129.58,-187.47 -170.96,-226.03 -300.72,-456.64 -375.5,-667.37 -601.38,-1807.88 -372.22,-2489.57 345.14,-1026.69 2080.96,-1064.01 2967.92,-884.96zm9110.59 4511.65c-59.87,82.55 -320.25,275.4 -429.52,342.69 -557.6,343.42 -1209.32,433.13 -1854.11,225.21 -393.65,-126.94 -708.14,-339.67 -921.27,-606.29 -113.83,-142.39 -224.26,-263.26 -323.51,-434.33 -310.28,-534.75 -528.98,-1162.47 -473.68,-1818.66l41.19 -283.76c75.49,-467.64 261.39,-706.87 618.41,-969.71 602.4,-443.47 1246.39,-614.3 2022.03,-639.84 302.95,-3.83 547.27,6.94 832.93,61.13 464.43,88.1 932.85,224.5 1221.33,583.45 108.28,134.72 110.43,119.15 101.19,346.12 -9.92,243.45 -83.14,1978.7 -117.3,2120.48 -74.63,309.75 -491.8,912.88 -717.67,1073.51zm-16088.66 -4778.23c29.28,-17.8 6,6.12 32.47,-30.91 2.55,-3.58 13.14,-24.57 15.16,-28.54 10.64,-20.95 22.58,-47.26 32.68,-69.13 20.47,-44.28 36.6,-87.62 55.82,-134.58 107.61,-262.84 124.21,-181.54 200.67,-556.69 73.91,-362.6 156.08,-535.87 284.15,-866.29 36.46,-94.05 119.43,-320.67 174.31,-392.81 24.7,-32.46 55.72,-83.1 78.81,-106.04 16.12,8.75 37.63,22.65 53.78,31.03l83.66 47.25c13.55,8.82 11.7,6.75 28.15,16.29l263.1 143.74c69.24,42.1 164.68,62.33 240.11,95.42 77.21,33.87 167.26,60.73 247.11,87.96 46.33,15.81 86.42,17.26 138.47,36.56 299.97,111.18 641.48,188.17 962.49,169.11l-185.09 1204.82 -92.43 1310.63c-70.64,40.36 -77.99,25.35 -152.25,54.99 -157.24,62.74 -1111.93,362.96 -1164.62,364.25l-137.23 -369.1c-25.25,-67.48 -45.16,-115.47 -70.97,-190.87l-173.04 -584.02c-29.36,-126.74 -62.63,-269.18 -100.21,-396.29 -47.47,-0.89 -42.96,-6.44 -89.5,25.2 -104.61,71.14 -83.76,-9 -334.27,88.87 -73.63,28.77 -315.41,122.22 -366.34,172.37 -32.42,31.92 -18.82,38.87 -48.17,68.32 -20.61,20.67 1.2,0.04 -15.96,12.85 -22.26,16.6 -56.37,35.8 -80.38,51.5 -51.77,33.89 -111.12,64.01 -170.26,91.34 -185.32,85.63 -174.95,110.83 -378.65,115.39 -14.18,-98.25 -55.53,-206.29 -73.7,-314.72 -21.6,-128.88 -34.18,-212.72 -62.48,-334.23 -51.81,-222.46 -66.89,-466.6 -62.32,-720.58 3.98,-221.38 50.66,-478.16 105.33,-676.85 27.7,-100.65 137.62,-495.3 237.14,-527.19 168.57,7.74 284.63,186.05 331.8,332.18 54.91,170.09 55.12,383.67 72.09,580.86 9.76,113.51 9.54,207.17 16.49,320.71 5.33,87.2 20.74,203.22 24.26,290.66 15.28,379.44 13.24,198.41 53.74,444.98 8.9,54.19 -1.89,98.2 26.07,141.57zm6482.69 -9482.35c380.93,35.44 1248.8,-39.02 1800.1,7.43 546.75,46.06 1111.61,57.85 1669.3,132.02 1041.1,138.46 2048.61,313.59 2948.1,678.46 461.89,187.36 786.13,364.47 1199.47,621.22 776.98,482.61 1370.91,1155.98 1570.8,2055.11 121.52,546.56 104.98,1098.31 33.66,1647.57 -6.56,52.96 -25.83,84.39 -31.64,127.39 -6.17,45.57 -3.04,90.46 -11.43,136.88 -14.33,79.25 -24.18,164.85 -40.68,252.17l-109.29 325.7c-10.15,53.46 -13.7,79.05 -19.64,123.85 75.33,-23.4 20.28,14.44 62.78,-44.56 226.85,-314.86 267.03,-334 442.77,-763.44 69.86,-170.72 106.98,-318.43 163.09,-492.48 69.63,-215.96 53.41,-308.32 183.39,-458.79 100.42,-116.25 198.73,-251.55 293.05,-362.19l292.22 -349.29c19.23,-24.65 538.14,-680.43 581.96,-709.42 17.75,-27.66 -2.37,-8.25 30.62,-21.69 95.82,417.63 60.68,868.47 -28.31,1270.93 -94.99,429.57 -413.61,894.57 -387.58,993.65 419.06,13.33 730.18,81.52 1066.62,246.9 246.81,121.33 475.16,282.69 664.91,471.52 132.45,131.79 276.79,274.01 387.75,428.24 227.11,315.66 562.67,1031.86 576.93,1371.66 47.04,54.51 44.73,151.37 37.56,220.17 -48.6,-18.74 -32.41,-7.02 -61.25,-52.08l-18.97 13.15c-127.7,-40.62 -241.16,-170.91 -342.26,-245.13l-331.9 -234.67c-127.14,-84.5 -225.36,-151.64 -354.55,-229.63 -52.71,-31.81 -316.65,-212.09 -352.43,-217.83 22.54,75 127.24,237.19 168.83,342.26 145.88,368.61 282.66,779.94 330.21,1185.22 36.8,313.57 21.27,657.99 -12.24,963.3l-100.11 475.98c-41.34,94.95 -64.66,211.64 -108.33,307.04 -48.51,-73.42 -51.57,-177.68 -104.86,-253.78 -31.59,-45.1 -19.33,-72.39 -47.77,-126.53l-29.34 -57.59c-39,-89.21 -47.8,-255.59 -82.51,-353.99l-165.03 -534.81c-35.76,-84.87 -72.38,-158.45 -109.84,-239.83l-124.17 -225.36c-58.88,-119.05 -118.94,-226.22 -199.42,-326.35 -36.19,-45.03 -36.73,-63.75 -71.74,-102.7 -2.86,-3.18 -11.93,-11.65 -14.85,-14.71l-137.86 -182.4c-29.21,-33.71 -55.04,-60.32 -80.9,-93.26l-672.57 -639.73c-56.47,-47.84 -303.44,-205.2 -370.95,-199.64 -77.4,6.38 3.17,-13.05 -23.77,11.13 -7.49,-12.11 -5.66,-18.16 -13.5,-28.02 -22.56,-28.36 -34.07,-20.49 -78.23,-43.18 -37.07,-19.04 11.93,-2.28 -25.26,-16.17l-73.55 2.49c-0.44,-19.22 0.29,-17.75 -3.75,-37.04 -0.56,-2.66 -4.22,-5.22 -4.73,-11.3 -0.52,-6.16 -3.94,-7.28 -5.83,-10.96l-21.41 3.26c-43.17,-0.95 -101.06,-90.68 -181.75,-96.11 -50.33,-3.38 -8.06,-1.01 -52.54,-5.75 -51.67,-5.5 -82.19,11.95 -106.32,21.54 -74.33,-48.23 -143.77,-67.12 -228.09,-95.69 -89.14,-30.21 -131.49,-56.9 -228.34,-80.18 -19.3,-4.64 -47.27,-11.05 -66.3,-18.3l-40.18 -18.01c-65.44,-24.17 -125.77,-30.45 -183.97,-60.79 -50.36,-26.25 -116.85,-24.48 -176.43,-44.24 -33.55,-11.13 -28.53,-9.21 -72.75,-17.73l-343.53 -87.38c-123.21,-17.63 -432.75,-61.28 -517.26,-105.48 6.74,-57.67 84.6,-198.95 110.01,-268.09l97.17 -282.65c12.28,-42.68 13.99,-31.52 24.69,-76.23 119.59,-499.48 149.98,-697.66 122.46,-1266.73 -7.06,-145.89 -36.79,-504.96 -138.25,-627.25 -36.64,37.94 -31.45,119.44 -44.75,178.21 -12.78,56.49 -20.41,121.69 -29.78,173.74 -77.94,433.03 -229.34,800.22 -466.23,1163.67l-169.34 237.06c-66.2,81.18 -293.3,387.3 -394.21,413.97 -39.3,-71.28 -19.83,-189.85 -36.81,-294.47 -31.03,-191.16 -50.85,-364.18 -99.92,-540.36l-124.22 -401.53c-5.98,-14.09 -1.72,-1.17 -12.52,-29.83 -92.13,-244.58 -240.98,-619.79 -373.63,-837.74 -22.44,-36.85 -37.02,-57.16 -60.71,-98.58l-252.21 -389.7c-24.69,-33.86 -38.62,-55.68 -65.59,-94.42 -23.42,-33.65 -45.24,-59.64 -68.21,-92.15 -30.96,-43.79 -44.21,-48.55 -71.19,-87.97 -25.14,-36.74 -40.93,-52.97 -68.67,-92.36 -73.09,-103.73 -159.08,-190.62 -241.3,-284.61l-239.18 -209.99c8.99,86.46 21.37,56.9 57.11,114.13 58.92,94.36 90.11,207.27 143.32,308.72l146.99 411.3c25.32,82.04 69.76,152.13 89.02,236.36l62.34 245.52c30.4,163.69 85.9,312.57 116.03,499.94 74.95,466.1 105.24,1276.56 69.02,1775.23 -6.21,85.49 -19.98,180.14 -21.63,274.51 -1.63,93.72 -24.64,184.49 -22.73,268.77 98.8,-5.88 207.14,-32.61 302.09,-10.96 100.56,25.23 396.34,1.28 522.1,1.08 344.67,-0.57 643.42,15.78 985.29,71.29 133.89,21.75 286.21,67.69 420.6,83.47 437.26,92.98 823.79,202.13 1205.13,355.66 334.8,134.78 730.95,333.25 928.14,631.28 349.88,528.84 601.58,1896.7 586.37,2536.19 -41.5,-13.16 -91.62,-40.88 -117.94,-75.49 -77.11,-29.18 -198.96,-109.24 -299.02,-155.23 -330.1,-151.71 -659.34,-263.91 -1025.95,-311.23 -1174.91,-151.66 -2603.36,88.12 -3433.12,939.89 -281.43,288.9 -216.4,270.6 -352.07,433.78 -19.21,23.1 -29.66,30.51 -47.07,52.28 -315.62,-14.72 -636.04,-295.26 -1427.7,-154.16 -122.79,21.89 -341.05,82.76 -453.04,81.72 -102.88,-163.74 -100.02,-200.64 -240.03,-382.17 -176.05,-228.25 -380.87,-446.02 -621.56,-604.92 -113.93,-75.21 -249.71,-165 -382.74,-229.38l-416.72 -194.93c-142.99,-66.03 -287.12,-110.5 -453.64,-159.39 -340.52,-99.95 -635.56,-162.73 -1010.67,-212.88 -873.89,-116.83 -2166.72,-28.97 -2840.26,612.2 -146.08,139.06 -212.23,249.18 -337.89,419.53 -68.79,93.26 -341.94,104.85 -483.12,128.05l34.94 -484.52c29.96,-372.71 66.52,-755.89 107.93,-1121.34 16.01,-141.31 108.38,-959.86 216.03,-1005.11 521.04,-42.02 945.74,-78.52 1395.91,-236.97 212.82,-74.91 395.89,-139.03 587.74,-227.67 105.01,-48.51 174.01,-87.63 266.08,-142.22 55.26,-32.76 196.02,-130.67 240.89,-144.02 -1.45,85.36 -24.83,231.61 -30.27,345.48 -5.52,115.6 -4.88,222.32 -4.55,338.24l18.41 227.97c91.01,140.08 -36.46,16.73 36.47,205.2 24.75,63.95 30.64,80.74 31.2,160.6 29.39,6.59 1.45,-52.89 26.68,14.57 -0.77,87.18 6.66,105.2 37.97,166.09 30.38,59.09 54.95,72.42 83.12,117.55 239.99,-4.06 146.21,-153.16 313.15,-226.07 74.06,-32.35 341,-304.73 402.51,-383.11 5.2,-6.62 16.41,-22.56 18.79,-25.33 18.61,-21.59 2.11,-6.66 26.87,-25.04l231.16 -213.88c68.43,-62.91 162.59,-135.01 240.75,-196.44 500.82,-393.7 961.23,-780.62 1572.64,-1051.01 664.16,-293.72 1596.19,-179.6 2332.21,-43.4 173.85,32.18 573.08,143.54 731.57,131.26 40.7,-116.99 -164.17,-341.43 -247.32,-426.6l-136.4 -195.21c-40.61,-78.74 -90.39,-129.55 -141.67,-196.22l-165.34 -270.93c-39.64,-66.22 -77.99,-145.88 -129.02,-207.04l-202.41 -217.41c-238.55,-232.7 -225.41,-211.41 -533.82,-315.18 -91.53,-30.8 -195.13,-35.07 -298.77,-31.43 -228.37,8.01 -564.85,148.16 -734.09,267.16 -166.37,116.99 -491.12,273.48 -632.98,387.68l-899.08 776.4c-67.4,71.85 -111.71,103.62 -170.58,163.03l-493.11 527.49c-28.48,32.56 -54.51,57.76 -83.68,90.78l-146.44 188.73c-134.61,145.51 -247.39,318.81 -369.77,460.94 -54.46,63.26 -97.32,122.85 -148.29,187.86l-118.03 144.29c-1.65,1.98 -4.61,5.58 -6.16,7.37l-21.68 21.26c-33.57,-30.34 -32.79,-66.69 -36.76,-112.45 -39.12,-450.95 43.06,-1004.66 214.24,-1416.55 50.88,-122.44 152.17,-303.41 183.71,-419.71 -90.3,13.51 -376.92,234.66 -468.8,296.09 -160.27,107.16 -293.67,195.76 -453.36,288.75 -778.59,453.39 -1447.03,609.01 -2389.04,604.4 -820.58,-4.02 -1581.22,-247.65 -2293.55,-612.96 -29.04,-14.89 -28.9,-13.68 -55.78,-30.05 -45.04,-27.46 -70.2,-40.78 -116.85,-72.32 -116.07,-78.48 -236.31,-134.38 -350.2,-218.33 -360.14,-265.46 -704.66,-548.81 -970.91,-905.85 -81.19,-108.88 -132.89,-241.41 -206.37,-348.1l-69.28 -134.55c-1.73,-2.63 -4.26,-6.08 -5.99,-8.67l-26.83 -43.74c-115.29,-238.38 -222.98,-468.05 -284.16,-730.01 87.15,10.01 186.7,35.86 276.7,52.89 281.48,53.28 639.02,16.03 910.4,-41.01 81.9,-17.22 177.59,-51.4 255.67,-78.73l488.81 -167.83c87.47,-35.23 139.58,-56.57 229.41,-91.96 313.24,-123.41 567.36,-306.56 883.35,-443.87 170.68,-74.17 740.22,-350.39 868.36,-442.05 -30.62,-46.64 -47.88,-39.9 -126.33,-48.87 -365.48,-41.84 -559.26,-78.1 -884.72,-280.42 -225.74,-140.32 -552.76,-411.16 -583.25,-773.33 127.81,13.28 463.33,156.99 734.62,189.2 484.14,57.5 1141.25,30.17 1609.53,-102.91 222.76,-63.3 425.44,-158.84 662.06,-236.46 35.57,1.14 351.7,-111.38 423.7,-132.43 804.61,-235.2 1568.73,-360.31 2419.31,-344.94 401.78,7.27 607.44,43.19 983.61,112.88 255.89,47.53 550.16,136.32 775.03,204.74 599.65,182.46 1076.85,496.15 1558.5,877.69 78.62,62.28 210.86,191.48 282.76,202 -29.18,-101.26 -140.58,-212.8 -211.64,-287.6 -311.82,-328.28 -1059.31,-842.2 -1439.41,-1040.49 -54.73,-28.55 -102.66,-55.48 -159.09,-86.55 -56.26,-30.96 -110.5,-47.17 -170.24,-78.12l-92.86 -40.89c-275.61,-113.19 -315.3,-138.95 -627.11,-217.3 -143.8,-36.14 -260.65,-61.48 -415.31,-83.73 -199.86,-28.75 -945.71,-77.8 -1164.99,-47.02 -167.71,23.55 -296.64,20.46 -438.97,-75.56l-163.45 -114.7c-144.54,-91.98 -259.91,-205.97 -372.07,-296.86 -30.2,-24.48 -98.76,-71.38 -116.4,-103.2 167.12,0.61 378.65,3.36 544.71,19.26 187.95,18 382.9,-6.06 571.26,8.22zm-871.16 723.29c-4.79,2.01 -655.11,124.84 -852.8,184.03 -265.48,79.48 -507.12,181.23 -767.41,265.81 -855.29,277.94 -1749.87,455.49 -2619.65,115.65 -365.67,-142.88 -508.82,-206.78 -454.62,351.61 42.53,438.24 220.49,768.2 521.52,1038.7 60.73,54.57 261.58,190.55 291.69,229.41l-65.64 46.76c-226.52,115.12 -273.55,149.09 -554.61,275.98 -230.29,103.97 -435.77,180.76 -680.61,265.73 -895.24,310.69 -1551.88,47.65 -1685.53,107.94 -283.58,127.92 145.81,1246.82 242.71,1452.33 149.03,316.1 320.7,616.36 552.62,875.44l240.61 239.04c-25.37,50.56 -68.41,74.08 -102.73,114.3 -106.98,125.34 -228.73,237.33 -330.22,369.08 -131.95,171.3 -254.41,384.73 -344.17,588.42 -434.4,985.82 -352.24,2115.92 -9.96,3124.48 115.76,341.09 257.13,670.05 403.32,996.08 139.82,311.83 162.27,302.31 65.1,416.75 -760.02,895.11 -706.21,2258.34 -188.48,3231.96 60.53,113.83 134.75,237.19 203.58,335.97 38.87,55.76 74.88,109.62 108.62,153.44 43.44,56.4 79.65,99.48 121.89,154.91 162.25,212.92 364.18,365.17 588.53,504.76 344.59,214.39 787.71,379.71 1219.6,416.71 193.45,16.57 368.33,-11.94 553.74,-9.38 37.06,39.15 57.54,83.64 86.2,122.07 140.51,188.35 297,351.02 462.22,513.78 21.78,21.45 32.72,39.17 55.17,61.2l166.3 153.86c167.32,147.18 371.51,304.55 564.87,412.22 456.62,254.27 380.08,-232.26 398.82,-281.08l512.35 490.96 212.42 137.41c391.76,247.65 398.7,250.23 889.94,465.52 112.48,49.3 202.75,90.05 324.92,127.32 84.1,25.66 299.43,71.95 361.62,102.59 -19.82,33.42 -213.73,97.95 -258.99,119.12 -170.47,79.75 -324.18,182.98 -467.76,290 -48.48,36.14 -52.89,37.55 -103.65,85.19l-492.54 484.09c-31.98,44.49 -55.64,58.48 -87.66,101.95 -181.41,246.27 -408.77,535.69 -515.79,824.1 -182.38,491.49 146.26,623.12 563.09,872.95l482.46 289.62c1213.32,685.9 2986.21,1371.14 4625.12,1519.78 1944.7,176.37 3522.92,-468.14 4744.59,-1342.62 76.77,-54.96 146.58,-101.6 223.57,-155.43 72.81,-50.91 142.56,-109.72 214.75,-163.97 133.48,-100.33 309.7,-238.01 287.9,-492.49 -27.51,-321.12 -527.96,-1059.99 -771.4,-1347.46l-282.35 -300.98c-130.12,-115.83 -269.09,-247.65 -420.79,-349.93 -155.51,-104.83 -312.05,-212.52 -484.28,-289.29 -68.18,-30.39 -212.78,-88.4 -259.43,-130.05 56.51,-32.22 222.45,-76.42 298.93,-105.08 423.37,-158.67 1025.04,-430.56 1408.18,-660.15 91.05,-54.57 167.58,-98.1 252.19,-156.19 371.57,-255.08 837.56,-602.07 1132.32,-950.75 125.01,-147.89 235.49,-305.27 348.54,-482.15 213.14,-333.49 93.41,-225.61 478.43,-351.31 398.56,-130.12 741.92,-458.93 936.46,-710.79 251.63,-325.75 430.4,-683.92 570.61,-1089.75 236.8,-685.39 307.6,-1729.53 -136.82,-2373.67 -43.96,-63.72 -80.53,-123.23 -133.98,-172.48l-49.66 -74.56c6.06,-6.7 15.51,-16.56 22.09,-22.85l120.15 -113.06c359.48,-464.73 580.97,-757.31 785.19,-1371.61 173.87,-522.99 264.77,-1009.18 253.64,-1577.84 -4.17,-213.06 -48.04,-375.21 -62.88,-571.26 40.83,17.01 9.88,1.51 36.81,17.23 11.43,6.66 22.87,15.63 35.28,24.41 28.45,20.13 38.52,26.38 69.57,46.41 52.95,34.17 89.22,59.56 142.79,90.72 482.8,280.83 690.29,256.79 630.19,-408.92 -86.49,-957.93 -516.77,-1864.11 -1225.74,-2448.95 -282.98,-233.43 -735.5,-562.88 -1178.88,-671.01 11.65,-74.47 58.01,-179.02 77.77,-264.8 23.71,-102.97 41.18,-191 58.73,-290.93 35.06,-199.61 52.8,-445.56 47.18,-650.95 -7.96,-291.36 -133.26,-948.54 -287.54,-1107.73 -68.68,-70.87 -179.37,-62.38 -264.45,-1.15 -179.63,129.27 -330.54,392.65 -502.78,546.64 -104.52,93.46 -465.38,506.75 -579.93,643.6 -29.54,35.29 -49.33,69.54 -81.13,107.08l-26.81 -102.84c-5.61,-38.8 -14.7,-80.76 -22.68,-121.88 -99.89,-515.1 -286.64,-951.17 -596.2,-1357.29l-256.25 -297.16c-83.48,-92.54 -181.94,-198.36 -281.37,-272.52l-305.85 -247.81c-770.93,-568.41 -1709.56,-979.51 -2651.26,-1267.67 -1905.98,-583.24 -5045.74,-787.99 -7060.89,-470.08 -158.57,25.01 -342.24,48.3 -306.9,246.62 27.15,152.35 582.74,683.31 745.99,799.91 37.94,27.1 48.1,30.62 72.15,76.28z"/>
  <path class="fil1" d="M17456.21 6877.24c584.59,33.22 979.73,156.69 1389.83,558.87l193.4 200.28c82.47,85.84 252.1,281.58 295.42,394.52 10.48,27.32 16.29,-38.87 6.33,30.3 -6.34,44.02 0.87,18.44 -21.47,21.46 -11.16,1.51 -124.55,-41.62 -137.72,-48.9 -36.4,-20.07 -63.37,-59.17 -95.97,-94.88 -158.16,-173.31 -578.59,-465.42 -790.79,-590.36l-65.15 -53.66c-2.06,-1.75 -5.11,-4.76 -7.27,-6.39 -2.16,-1.63 -5.57,-4.17 -7.86,-5.67l-337.52 -172.12c-3.11,-1.6 -6.84,-3.8 -9.93,-5.36l-218.55 -102.75c-24.44,-16.41 -25.37,-18.16 -66.01,-32.89l-111.13 -70.12c-2.61,-3.03 -5.8,-8.15 -7.9,-10.78 -2.18,-2.73 -5.02,-7.8 -7.74,-11.55zm-7893.08 -2647.75c-44.73,217.66 -183.1,386.64 -324.49,515.9 -287.2,262.56 -975.68,387.17 -1332.12,183.02 -264.42,-151.46 -448.2,-519.52 -151.42,-821.73 98.36,-100.16 99.4,-103.88 259.03,-163.71 206.46,-77.38 426.01,-164.38 624.96,-231.03 233.63,-78.27 418.54,-170.33 677.56,-59.67 207.15,88.5 307.1,282.29 246.49,577.23zm-89.65 -2520.49c3.26,2.38 7.96,4.82 10.43,6.22l192.19 118.32c-34.01,29.03 8.46,5.94 -34.49,17.22 -3.71,0.96 -7.69,1.82 -11.6,2.42l-202.74 -17.56c-269.47,-30.74 -518.87,-40.51 -791.72,-41.28 -541.48,-1.53 -1556.92,56.41 -2074.92,141.72l-868.11 168.47c-55.74,-13.18 -21.43,34.8 -45.67,-31.04 -236.62,77.62 -439.3,173.16 -662.06,236.46 -468.27,133.08 -1125.38,160.41 -1609.53,102.91 -271.29,-32.22 -606.81,-175.92 -734.62,-189.2 30.49,362.17 357.51,633 583.25,773.33 325.46,202.31 519.24,238.58 884.72,280.42 78.44,8.97 95.7,2.23 126.33,48.87 -128.14,91.66 -697.68,367.89 -868.36,442.05 -315.99,137.31 -570.11,320.45 -883.35,443.87 -89.83,35.39 -141.94,56.73 -229.41,91.96l-488.81 167.83c-78.09,27.33 -173.77,61.51 -255.67,78.73 -271.37,57.05 -628.92,94.29 -910.4,41.01 -90,-17.03 -189.56,-42.88 -276.7,-52.89 61.19,261.95 168.87,491.63 284.16,730.01l26.83 43.74c1.72,2.59 4.25,6.04 5.99,8.67l69.28 134.55c73.47,106.69 125.18,239.22 206.37,348.1 266.24,357.04 610.76,640.38 970.91,905.85 113.88,83.95 234.13,139.85 350.2,218.33 46.66,31.55 71.81,44.86 116.85,72.32 26.88,16.38 26.74,15.17 55.78,30.05 712.33,365.3 1472.97,608.94 2293.55,612.96 942,4.61 1610.44,-151.01 2389.04,-604.4 159.69,-92.99 293.09,-181.58 453.36,-288.75 91.88,-61.43 378.5,-282.58 468.8,-296.09 -31.54,116.3 -132.83,297.27 -183.71,419.71 -171.17,411.89 -253.36,965.6 -214.24,1416.55 3.96,45.76 3.19,82.11 36.76,112.45l21.68 -21.26c1.55,-1.79 4.51,-5.39 6.16,-7.37l118.03 -144.29c50.97,-65.01 93.84,-124.6 148.29,-187.86 122.37,-142.12 235.16,-315.42 369.77,-460.94l146.44 -188.73c29.16,-33.02 55.19,-58.21 83.68,-90.78l493.11 -527.49c58.87,-59.4 103.18,-91.17 170.58,-163.03l899.08 -776.4c141.87,-114.21 466.61,-270.7 632.98,-387.68 169.24,-119 505.72,-259.15 734.09,-267.16 103.64,-3.64 207.24,0.63 298.77,31.43 308.41,103.77 295.27,82.48 533.82,315.18l202.41 217.41c51.04,61.16 89.39,140.83 129.02,207.04l165.34 270.93c51.28,66.67 101.06,117.48 141.67,196.22l136.4 195.21c83.15,85.17 288.02,309.61 247.32,426.6 53.6,-14.56 117.4,-22.25 184.49,-26.61l192.23 -20.87c-94.94,-21.65 -203.29,5.08 -302.09,10.96 -1.91,-84.27 21.1,-175.04 22.73,-268.77 1.64,-94.38 15.42,-189.02 21.63,-274.51 36.22,-498.67 5.93,-1309.12 -69.02,-1775.23 -30.13,-187.37 -85.63,-336.25 -116.03,-499.94l-62.34 -245.52c-19.26,-84.22 -63.7,-154.32 -89.02,-236.36l-146.99 -411.3c-53.21,-101.45 -84.4,-214.36 -143.32,-308.72 -35.74,-57.24 -48.13,-27.67 -57.11,-114.13l239.18 209.99c82.22,93.99 168.21,180.88 241.3,284.61 27.75,39.39 43.53,55.62 68.67,92.36 26.98,39.42 40.23,44.18 71.19,87.97 22.97,32.51 44.79,58.51 68.21,92.15 26.97,38.74 40.9,60.56 65.59,94.42l252.21 389.7c23.69,41.42 38.28,61.72 60.71,98.58 132.65,217.94 281.5,593.16 373.63,837.74 10.8,28.66 6.54,15.74 12.52,29.83l124.22 401.53c49.08,176.18 68.89,349.2 99.92,540.36 16.98,104.62 -2.49,223.2 36.81,294.47 100.91,-26.67 328.01,-332.79 394.21,-413.97l169.34 -237.06c236.89,-363.45 388.28,-730.63 466.23,-1163.67 9.37,-52.05 17,-117.25 29.78,-173.74 13.3,-58.76 8.11,-140.27 44.75,-178.21 101.46,122.28 131.19,481.36 138.25,627.25 27.52,569.06 -2.86,767.25 -122.46,1266.73 -10.7,44.71 -12.41,33.55 -24.69,76.23l-97.17 282.65c-25.42,69.14 -103.27,210.42 -110.01,268.09 84.51,44.2 394.06,87.85 517.26,105.48l343.53 87.38c44.23,8.52 39.2,6.6 72.75,17.73 59.57,19.75 126.07,17.99 176.43,44.24 58.21,30.33 118.53,36.62 183.97,60.79l40.18 18.01c19.03,7.25 47,13.66 66.3,18.3 96.85,23.28 139.2,49.97 228.34,80.18 84.33,28.57 153.77,47.46 228.09,95.69 24.13,-9.6 54.65,-27.04 106.32,-21.54 44.48,4.74 2.21,2.36 52.54,5.75 80.7,5.43 138.58,95.16 181.75,96.11l21.41 -3.26c1.89,3.68 5.31,4.8 5.83,10.96 0.51,6.08 4.17,8.64 4.73,11.3 4.04,19.29 3.3,17.82 3.75,37.04l73.55 -2.49c37.19,13.88 -11.8,-2.87 25.26,16.17 44.16,22.69 55.67,14.82 78.23,43.18 7.84,9.86 6.01,15.91 13.5,28.02 26.93,-24.18 -53.63,-4.75 23.77,-11.13 67.51,-5.57 314.49,151.8 370.95,199.64l672.57 639.73c25.86,32.94 51.7,59.55 80.9,93.26l137.86 182.4c2.92,3.06 11.99,11.53 14.85,14.71 35.01,38.95 35.55,57.67 71.74,102.7 80.48,100.13 140.55,207.3 199.42,326.35l124.17 225.36c37.46,81.38 74.09,154.96 109.84,239.83l165.03 534.81c34.71,98.4 43.51,264.78 82.51,353.99l29.34 57.59c28.45,54.14 16.19,81.44 47.77,126.53 53.29,76.1 56.35,180.36 104.86,253.78 43.67,-95.4 67,-212.09 108.33,-307.04l100.11 -475.98c33.5,-305.31 49.03,-649.72 12.24,-963.3 -47.56,-405.28 -184.33,-816.61 -330.21,-1185.22 -41.59,-105.08 -146.28,-267.27 -168.83,-342.26 35.78,5.74 299.72,186.02 352.43,217.83 129.19,78 227.42,145.13 354.55,229.63l331.9 234.67c101.1,74.22 214.56,204.52 342.26,245.13l18.97 -13.15c28.84,45.06 12.64,33.34 61.25,52.08 7.17,-68.8 9.48,-165.66 -37.56,-220.17 5.18,27.38 15.83,65.08 18.42,91.7 6.45,66.31 -5.33,69.52 -21.7,88.31 -12.83,-54.35 -316.09,-546.01 -383.09,-620.31 -60.48,-67.08 -115.93,-109.38 -175.14,-174.85 -159.94,-176.81 -321.78,-377.79 -502.57,-518.26 -363.18,-282.2 -625.1,-452.35 -1041.86,-661.05 -378.22,-189.39 -565.37,-283.52 -1076.29,-296.05l144.57 -285.48c48.11,-108.38 92.78,-193.33 140.22,-296.89 98.73,-215.55 192.51,-385.96 270.83,-619.94 73.59,-219.86 238.18,-810.92 277.13,-1049.67 22.12,-135.58 17.31,-278.74 38.55,-418.72 -43.82,28.98 -562.72,684.76 -581.96,709.42l-292.22 349.29c-94.31,110.64 -192.63,245.94 -293.05,362.19 -129.98,150.47 -113.76,242.82 -183.39,458.79 -56.11,174.06 -93.23,321.77 -163.09,492.48 -175.74,429.44 -215.93,448.58 -442.77,763.44 -42.51,59 12.54,21.16 -62.78,44.56 5.93,-44.8 9.49,-70.39 19.64,-123.85l109.29 -325.7c16.49,-87.32 26.35,-172.92 40.68,-252.17 8.39,-46.42 5.25,-91.31 11.43,-136.88 5.82,-42.99 25.09,-74.42 31.64,-127.39 -23.56,5.6 -59.55,-274.7 -77.74,-356.15 -81.51,-364.84 -305.35,-889.98 -496.23,-1213.69l-405.23 -615.68c-56.89,-73.66 -143.58,-182.26 -210.1,-256.88 -157.92,-177.13 -522.02,-495.65 -721.2,-634.35l-272.73 -193.99c-306.91,-207.84 -863.22,-463.99 -1230.18,-591.27 -895.23,-310.49 -2067.13,-489.15 -3039.26,-604.89 -352.32,-41.95 -1201.4,-193.09 -1539.31,-282.32 -253.86,-67.03 -447.65,-157.09 -676.55,-238.19 -256.88,-91 -512.17,-56.38 -776.11,-130.37l223.22 -24.03c-188.36,-14.28 -383.3,9.79 -571.26,-8.22 -166.05,-15.9 -377.58,-18.65 -544.71,-19.26 17.63,31.81 86.19,78.72 116.4,103.2 112.16,90.89 227.52,204.88 372.07,296.86l163.45 114.7c142.33,96.02 271.26,99.11 438.97,75.56 219.28,-30.78 965.13,18.26 1164.99,47.02 154.65,22.25 271.51,47.59 415.31,83.73 311.81,78.35 351.5,104.11 627.11,217.3l92.86 40.89c59.74,30.95 113.98,47.16 170.24,78.12 56.43,31.07 104.36,58 159.09,86.55 380.1,198.29 1127.58,712.21 1439.41,1040.49 71.06,74.8 182.46,186.34 211.64,287.6 -71.89,-10.53 -204.14,-139.72 -282.76,-202 -481.65,-381.54 -958.85,-695.23 -1558.5,-877.69 -224.88,-68.42 -519.15,-157.21 -775.03,-204.74z"/>
  <path class="fil2" d="M13804.31 16276.82c25.84,15.72 28.58,-22.51 17.25,29.33 -37.32,18.83 -57.86,39.17 -92.69,68.59 -96.41,81.45 -62.32,188.33 -529.6,344.2 -89.12,29.72 -185.7,42.72 -280.98,71.81 -159.92,48.83 -27.59,32.64 -272.48,77.24 -106.32,19.37 -202.3,28.18 -324.56,29.41 -212.12,2.14 -840.05,-26.72 -1044.18,-126.24 -68.31,-33.3 1.74,11.2 -88.5,-14.72 -65.79,-18.88 -18.68,-14.67 -57.02,-29.15 -53.66,-20.27 -153.9,-32.15 -259.04,-93.75l-138.23 -70.48c-3.27,-1.36 -13.9,-4.92 -17.5,-6.63 -20.61,-9.79 -37.61,-23.74 -53.97,-33.2l-226.76 -122.31c-93.87,-49.81 -207.51,-157.51 -261.41,-220.34l-14.48 -15.41c-2.19,-2.37 -5.69,-5.12 -7.84,-7.48 -84.58,-92.99 60.04,-7.15 -157.67,-160.96 -103.96,-73.45 -78.74,-47.73 -77.79,-98.61 -15.74,-49.73 -97.12,-102.19 67.92,-223.65 204.41,-150.46 265.3,58.72 702.75,283.76 741.14,381.25 1548.5,505.94 2382.53,252.53 394.09,-119.73 594.72,-409.08 754.6,-198.56 81.7,107.58 30.24,193.21 -20.36,264.62zm-8106.43 -1541.21c89.77,-2.68 137.87,54.85 234.03,151.67 33.37,33.61 63.29,61.1 97.73,90.77 2.34,2.01 5.66,4.73 7.95,6.78 2.29,2.03 5.47,4.91 7.71,7l570.21 408.71c45.31,25.55 71.28,46.67 120.6,67.48l742.07 264.73c95.22,26.89 240.37,62.61 339.73,65.86 -120.78,105.19 -128.22,113.62 -297.91,190.82 -248.2,112.91 -554.34,189.56 -829.18,118.75 -457.52,-117.86 -483.81,-115.11 -796.47,-440.47 -61.73,-64.25 -102.01,-141.4 -148.77,-215 -55.74,-87.74 -81.9,-169.52 -98.35,-276.14 -28.94,-187.68 21.43,-300.03 50.66,-440.95zm6495.84 -352.22c-81.81,-222.85 399.99,-131.65 637.42,-135.72 183.2,-3.14 249.27,-37.78 335.91,76.56 171.3,226.04 -167.73,400.06 -251.7,463.96 -41.4,31.5 -65.99,69.47 -149.1,39.07 -38.95,-14.25 -88.01,-61.7 -119.49,-84.39l-364.2 -248.38c-30.21,-25.12 -75.33,-74.33 -88.83,-111.1zm-10944.15 -496.08c-64.02,-124.88 106,-417.32 160.24,-479.8 109.77,-126.44 265.61,-201.67 495.93,-188.78 367.13,20.54 723.27,285.69 889.03,464.5 24.55,26.48 52.4,59.25 72.68,87.87l188.76 320.05c32.77,93.42 27.93,422.28 57.6,627.61 32.49,224.86 121.07,292.69 268.38,402.5 115.8,86.31 351.91,200.67 216.71,387.23 -74.23,102.43 -311.11,185.48 -499.37,173.66 -157.3,-9.86 -405.81,-87.31 -537.16,-149.81 -271.5,-129.21 -503.18,-453.01 -510.91,-842.55 -7.73,-389.24 181.29,-574.06 220.73,-689.68 42.59,-124.86 -23.49,-184.13 -132.02,-259.26l-214.17 -121.31c-197.18,-71.19 -344.91,-39.79 -500.68,94.75 -114.75,99.1 -99.7,162.48 -175.76,173.02zm3884.67 2823.91l11.59 -59.86c-53.94,-14.64 -13.94,5.2 -51.24,-38.27l-161.88 -200.14c-13.28,-22.88 -19.87,-37.27 -33.54,-55.95 -12.88,-17.59 -25.07,-26.18 -35.43,-47.88 -9.84,-20.6 -6.96,-23.67 -7.37,-24.58l-21.31 -21.56c-39.45,-27.96 -48.23,-54.6 -112.28,-122.9 -91.46,-97.56 -99.76,-102.21 -160.22,-217.26l-43.33 -53.49c86.11,-96.36 135.17,-287.43 182.96,-313.54 77.82,30.63 131.91,146.37 174.69,210.65l28.75 44.33c15.7,21.84 35.52,42.2 51.87,64.49l436.12 570.22c47.66,53.89 86.31,72.47 140.99,147.67l230.13 236.82c2.79,3.19 10.55,12.81 13.49,16l236.57 217.27c47.34,46.12 80.85,66.07 122.85,108.08 135.46,135.5 305.25,248.36 460.27,358.36 2.7,1.92 6.42,4.2 9.14,6.06 31.56,21.62 34.27,23.8 66.76,48.64 165.68,126.65 254.94,176.85 426.88,288.05l310.04 185.34c3.82,2.24 15.18,8.47 18.98,10.67l581.7 306.86c116.57,53.65 220.95,106.45 333.05,148.67 175.55,66.11 535.97,205.89 708.43,240.17 -8.28,10.95 -10.72,14.29 -19.37,25.31 -2.23,2.84 -10.23,12.98 -12.47,15.76l-13.8 16.59c3.49,69.43 -4.4,8.11 25.56,34.25 273.85,-344.28 517.32,-593.59 967.58,-834.32 438.63,-234.51 851.8,-371.94 1446.78,-365.85 565.48,5.78 966.76,244.89 1324.99,486.51 687.51,463.72 761.49,871.53 845.64,975.32 94.54,-7.05 245.3,-46.79 337.1,-70.63 58.4,-15.16 269.53,-83.26 308.44,-82.68 0.74,-3.02 2.4,-11.07 1.69,-9.15l-9.59 -19.78c-1.73,-2.43 -7.95,-6.57 -11.22,-10.52 -88.6,9.52 -317.69,111.79 -553.58,150.45l-31.72 -51.63c-16.43,-46.66 47.39,0.58 -23.39,-47.05 56.34,-5.81 125.91,-31.57 178.19,-54.49 279.87,-122.75 847.65,-262.77 1230.44,-413.47 233.84,-92.06 744.68,-334.42 955.51,-460.27 95.68,-57.11 197.44,-123.85 309.11,-165.55l-18.82 33.63c-59.18,88.15 -104.95,116.85 -206.87,169.56l-586.31 316.67c-44.83,27.56 -87.14,53.54 -138.47,79.62l-118.27 57.77c-31.37,30.8 -14.76,-9.8 -21.14,39.69 88.53,-24.46 226.49,-106.38 314.81,-153.88l609.94 -336.72c88.22,-51.69 241.83,-146.02 285.28,-202.47l254.77 -233.07c84.66,-84.65 197.86,-146.46 220.95,-224.61 0.56,-1.89 1.65,-6.38 2.09,-8.14 20.63,-81.15 -17.18,36.25 3.44,-21.11 71,-19.17 90.06,-48.53 152.69,-96.34 98.49,-75.2 -17.53,-33.93 128.8,-176.85l32.72 -39.63c53.28,-64.13 78.67,-59.24 113.23,-120.38 1.64,-2.91 3.74,-6.88 5.3,-9.93 0.02,-0.03 12.33,-28.95 12.89,-30.56 19.5,-56.26 -4.4,-78.4 26.73,-118.24 14.92,-19.09 69.46,-26.15 80.88,-140.17 2.13,-21.27 -7.22,-29.97 6.5,-77.16l42.51 -76.19c51.18,-86.98 0.65,-43.21 57.18,-89.76l134.19 -170.77c5.61,-10.15 12.43,-17.23 21.34,-34.51 45.74,-88.75 38.07,-130.85 85.89,-169.58 37.97,-30.74 116.96,-249.46 117.52,-311.73 0.28,-31.37 -0.01,-20.24 3.1,-46.08 8.66,-71.89 19.66,-138.11 31.92,-199.07 12.88,-64.1 10.83,-145.31 29.34,-203.79 30.16,-95.32 16.1,-97.78 24.03,-197.12 -81.82,24.58 -14.84,-3.08 -76.68,46.53 -25.84,20.73 -21.06,21.9 -63.36,25.86 -50.52,45.17 -77.05,75.68 -125.47,118.47 -27.01,23.86 -102.43,83.3 -118.7,103.9 -0.67,4.35 -0.05,6.64 -0.16,13.19 -0.11,6.29 -0.05,9.88 -0.26,12.64 -6.93,91.47 16.36,-69.48 -1.18,22.26l-4.87 17.89c-0.97,2.35 -15.56,21.59 -17.01,23.26l55.89 45.73c-7.75,61.84 -31.34,55.84 -0.46,112.36 -47.7,13.1 -21.21,6.54 -51.49,33.68 -55.53,49.75 -68.76,-4.28 -138.75,94.92 -51.39,72.84 -97.47,140.18 -159.33,205.76l-204.18 159.15c-98.17,55.51 -215.42,140.05 -365.33,172.47 -60.81,13.15 -99.15,27.28 -155.55,31.19 -150.35,10.4 -181.43,1.4 -320.77,-13.93 -79.7,-8.77 -431.93,-138.7 -450.23,-169.07 -19.06,-31.61 -11.3,9.48 3.15,-14.83 1.51,-2.53 10.25,-11.39 12.41,-14.06l-87.88 -36.58c2.61,0.56 7.56,-4.68 9.04,-1.77 2.11,4.15 12.97,-5.28 19.91,-7.22l925.54 -113.85 440.98 -261.26c-83.76,21.05 -239.79,117.47 -348.25,156.1 -126.58,45.08 -257.95,80.67 -404.42,110.05 -642.14,128.8 -1130.19,21.18 -1706.72,-228.67 -249.99,-108.34 -719.52,-449.48 -889.43,-654.29 -101.72,-122.6 -64.55,-37.5 -228.99,-280.73 -307.19,-454.41 -501.29,-871.62 -626.08,-1429.79 -101.74,-455.12 -48.07,-580.08 -81.37,-952.04 -512.2,-318.44 -1005.41,-351.36 -1524.63,-46.22 -81.69,892.16 -170.98,1200.62 -637.85,1971.71 -117.6,194.24 -260.6,342.3 -391.1,482.66 -114.49,123.13 -312.44,289.06 -479.95,394.06 -222.02,139.16 -332.53,193.78 -571.07,301.53 -458.4,207.09 -951.8,263.06 -1505.59,215.56 -656.09,-56.27 -1314.95,-437.97 -1767.95,-839.92 -111.64,-99.05 -214.08,-231.6 -313.09,-341.66 -29.69,-32.99 -71.15,-79.08 -100.33,-118.75 -128.47,-174.74 -226.32,-318.22 -341.2,-532.9 -378.65,-707.54 -497.66,-1267.62 -535.08,-2088.75l-328.73 27.98c-44.52,18.03 -9.28,-2.71 -31.95,30.19 -16.81,20.48 -97.11,1816.71 -130.58,2039.35 -14.91,99.2 -43.4,379.71 -93.92,439.15 -42.95,50.54 -332.94,143.52 -429.01,110.28 -176.48,-61.06 -511.98,-1240.08 -653.58,-1516.55 -345.29,-674.16 -1114.55,-972.22 -1734.28,-449.26 -561.08,473.45 -704.16,1284.79 -538.78,2056.43 87.03,406.08 398.58,1043.44 696.67,1338.44 453.8,449.09 881.37,710.41 1581.79,736.47 562.25,20.93 975.2,-203.06 1329.28,-581.02 84,-89.67 76.35,-120.09 142.25,-134.76 68.77,88.15 61.94,123.08 143.53,205.78 115.41,116.98 223.98,271.54 326.22,402.26 59.78,76.43 112.44,123.22 166.26,189.85z"/>
  <path class="fil2" d="M15236.54 8945.28c377.61,-49.07 772.69,-1.51 1101.74,108.32 192.61,64.28 458.27,185.29 615.71,303.84 61.29,46.15 113.94,79.36 170.25,135.66 31.97,31.96 40.46,53.65 72.27,88.39 196.31,214.38 249.86,514.71 93.63,506.15 -73.58,-4.03 -324.69,-327.61 -1114.19,-419.65 -1130.83,-131.83 -1792.45,404.16 -2137.29,202.31 -113.03,-66.16 -238.99,-237.72 -140.98,-421.77 170.94,-321 1000.01,-459.21 1338.86,-503.23zm-1905.69 -1905.38c-21.27,12.83 -109.3,14.28 -162.27,30.72 -158.11,49.05 -370.04,46.49 -541.39,47.71 -571.43,4.04 -928.79,15.36 -1499.49,74.46 -633.06,65.56 -1657.23,576.52 -2176.81,964.89l-430.46 344.01c312.66,101.3 401.35,112.72 730.26,239.16 245.36,94.32 473.83,177.96 651.39,311.38 346.1,260.03 65.68,852.39 -475.26,563.17l-697.29 -279.17c-324.55,-101.46 -931.55,-190.63 -1259.61,-175.9 -997.08,44.77 -1564.25,672.5 -1534.52,285.12 16.14,-210.31 194.45,-309.49 319.11,-444.26 302.12,-326.62 840.29,-414.91 1001.01,-532.73l-9.74 -59.54 -18.41 -227.97 -15.17 -312.14c-130.92,80.44 -297.32,191.35 -458.37,263.34 -420.68,188.04 -1081.18,464.7 -1517.47,608.96 -128.08,42.35 -145.85,55.33 -177.22,187.48 -25.6,107.78 -52.91,172.05 -76.62,272.25 -23.04,97.31 -56.24,174.01 -82.42,268.63 -25.51,92.18 -41.09,183.28 -66.88,283.05l-195.04 869.39c-31.77,166.41 -0.43,161.07 -170.97,178.08 -1.02,-73.1 6.64,-145.98 9.13,-218.83 1.54,-45.06 9.29,-133.85 -5.05,-173.11 -18.84,-51.64 34.62,-7.74 -23.69,-33.49l-34.94 484.52c141.18,-23.19 414.33,-34.79 483.12,-128.05 125.66,-170.34 191.82,-280.47 337.89,-419.53 673.54,-641.17 1966.36,-729.03 2840.26,-612.2 375.1,50.15 670.15,112.93 1010.67,212.88 166.53,48.88 310.66,93.36 453.64,159.39l416.72 194.93c133.03,64.38 268.81,154.16 382.74,229.38 240.69,158.9 445.51,376.67 621.56,604.92 140.01,181.53 137.15,218.43 240.03,382.17 111.99,1.04 330.26,-59.83 453.04,-81.72 791.66,-141.1 1112.08,139.44 1427.7,154.16 17.41,-21.77 27.87,-29.17 47.07,-52.28 135.67,-163.17 70.63,-144.88 352.07,-433.78 829.76,-851.77 2258.21,-1091.55 3433.12,-939.89 366.6,47.32 695.85,159.51 1025.95,311.23 100.06,45.99 221.91,126.05 299.02,155.23 -3.82,-109.34 -61.56,-7.51 -95.82,-150.12 -13.75,-57.22 -27.3,-148.94 -37.9,-214.39 -21.68,-133.8 -69.8,-245.57 -104.77,-388.92 -48.4,-198.39 -177.48,-523.79 -258.07,-716.75 -47.74,-114.31 -215.82,-473.35 -289.14,-571.68 -87.73,-117.65 -198.24,-218.33 -290.68,-320.97 -43.19,-47.95 -83.48,-74.13 -130.72,-117.23 -114.41,-104.39 -71.09,-94.64 -130.23,-73.25 -1,-72.67 -21.51,-72.47 -66.8,-108.82 -103.86,-83.36 -92.99,-94.99 -262.3,-218.17 -227.11,-165.23 -387.2,-247.32 -608.3,-382.57 -47.61,-29.11 -53.89,-55.06 -92.16,-73.31 -68.13,-32.48 -125.22,-2.18 -206.19,-40.33 -2.79,-1.32 -6.27,-3.65 -9.07,-5.02l-18.84 -10.22c-8.26,-3.68 -369.61,-96.99 -403.96,-75.71 87.26,0 128.58,15.97 200.36,30.57 29.09,5.91 62.67,14.9 97.08,20.85 116.2,20.05 98.05,-14.21 105.81,-31.61 -134.39,-15.78 -286.71,-61.73 -420.6,-83.47 -341.87,-55.51 -640.62,-71.87 -985.29,-71.29 -125.76,0.2 -421.54,24.16 -522.1,-1.08l-192.23 20.87c-67.09,4.36 -130.89,12.05 -184.49,26.61z"/>
  <path class="fil3" d="M19337.47 22062c-10.23,35.63 6.74,30.48 -60.68,23.34 -82.13,-8.71 -300.93,-185.26 -365.61,-320.19 -44.25,-92.28 -62.68,-192.58 -56.99,-317 6.56,-143.61 84.03,-316.64 133.77,-446.4 16.52,-43.12 48.64,-68.8 78.21,-107.11 131.54,-170.49 209.46,-202.69 491.83,-9.85 112.69,76.95 195.82,103.96 203.42,190.14 -16.5,37.67 -121.92,140.47 -157.68,182.96 -52.77,62.7 -106.37,141.81 -143.66,220 -60.78,127.45 -124.49,413.16 -122.61,584.11zm2161.57 -2563.82l3.07 24.97c0,1.4 0.34,5.64 0.2,7.02 -0.12,1.28 -0.46,5.27 -0.72,6.49 -1.13,5.23 -10.97,18.75 -16.04,27.55 49.66,-19.61 23.68,-7.28 39.98,4.47l-24.4 38.95 81.87 -41.26c32.83,-22.45 46.53,-30.87 80.72,-50.39 64.4,-36.76 108.68,-62.05 173.68,-102.77 451.42,-282.82 1349.07,-637.42 1866.33,-829.57 252.78,-93.89 531.9,-215.47 782.83,-296.2 -91.6,277.96 -67.04,565.88 112.43,743.14l-1099.64 470.49c-370.46,161.07 -739.86,314.39 -1113.77,473.81 -367.67,156.77 -731.09,323.9 -1096.5,476.54 -185.64,77.54 -352.7,158.9 -543.99,242.83l-555.67 228.37c-57.82,-28.55 -61.54,-43.6 -100.47,-74.08l-265.54 -185.62c-129.72,-79.25 -243.22,-155.7 -375.31,-237.02 -132.33,-81.48 -247.47,-155.77 -372.38,-239.63 -375.59,-252.17 -738.6,-470.15 -1127.67,-707.53l-561.13 -357.18c-61.62,-39.56 -115.79,-69.96 -181.13,-120.13 34.25,-111.39 299.62,-279.71 413.3,-353.95 581.23,-379.6 950.98,-300.47 1513.08,-571.52 64.18,-30.95 59.07,-42.4 112.07,-77.89 61.06,-116.12 386.46,-403.57 500.27,-503.52 381.64,-335.17 811.61,-548.61 1304.74,-718.98 157.95,-54.57 689.18,-190.08 855.33,-131.47 213.29,75.23 465.22,224.58 679.99,325.58 135.39,63.68 1881.63,974.86 2000.18,1055.7 -37.92,28.18 -670.06,214.54 -847.67,286.35 -721.59,291.75 -866.31,337.69 -1558.57,727.73 -123.88,69.8 -634.72,389.39 -679.47,458.71zm-1406.23 2981.74c25.86,136.87 112.72,631.94 282.83,423.33 45.48,-55.77 80.85,-93.37 122.69,-153.59 102.89,-148.09 92.08,-233.45 339.43,-173.64 125.02,30.22 338.88,116.1 455.18,109.45 9.07,-157.02 -274.04,-608.87 -341.09,-697.65 32.85,-50.35 859.07,-400.87 987.37,-462.21 107.78,-51.53 224.72,-94.38 334.78,-146.01 435.9,-204.44 888.02,-401.62 1325.96,-596.57 447.19,-199.06 887.86,-402.68 1334.35,-589.15 252.21,-105.32 452.54,-179.68 544.27,-419.42 118.27,-309.15 -35.17,-591.83 -194.01,-727.21 -173.87,-148.18 -489.93,-283.91 -405.15,-527.56 50.06,-143.89 156.62,-154.47 232.67,-246.54 80.81,-97.86 119.13,-240.71 28.46,-363.51 -153.63,-208.08 -2113.14,-1227.9 -2462.87,-1383.57 -637.82,-283.89 -667.71,-445.81 -1512.55,-250.52 -776.01,179.37 -1460.04,605.95 -1974.65,1145.69 -34.49,36.17 -85.3,75.77 -122.69,125.01 -347.8,458.11 -387.15,296.05 -962.75,476.39 -304.34,95.36 -743.61,271.08 -956.03,489.13 -192.03,197.11 -693.5,184.13 -912.28,544.89 -123.01,202.83 -100.53,583.05 -108.39,847.92 -20.3,683.38 9.89,636.89 482.21,955.6 190.82,128.76 427.07,248.26 598.53,363.29 281.68,188.97 580.12,347.48 888.88,553.34 187.92,125.3 399.99,245.49 595.69,365.64 202.28,124.18 391.32,253.03 590.84,370.49 117.55,69.19 248.51,88.04 408.21,84.54 217.95,-4.77 252.54,-41.94 400.12,-117.56z"/>
  <path class="fil2" d="M10429.9 21167.81c-130.12,-119.61 69.56,-220.22 154.26,-259.58 111.05,-51.62 247.16,-96.98 304.98,30.76 -40.84,93.68 -324.58,233.05 -459.23,228.82zm209.88 -858.35l-302.69 157.93c-56.54,27.39 -362.6,142.85 -223.41,-46.04 93.45,-126.83 280.49,-270.15 454.52,-233.53 30.19,6.35 62.49,21.39 75.66,40.43 16.76,24.24 18.62,55.99 -4.07,81.21zm-2317.81 1522.21l-251.22 751.83c68.41,48.05 358.67,155.14 459.59,194.96 308.3,121.62 1222.29,421.8 1501.64,443.36 137.56,8.96 265.3,3.91 380.29,-41.24 76.78,-30.15 220.91,-100.2 262.86,-150.33 -24.48,-13.98 -147.08,78.15 -187.91,97.83 -196.36,94.63 -351.33,80.23 -556.08,41.77 -56.61,-10.64 -233.95,-48.99 -273.19,-65.79 95.74,-25.7 156.62,52.01 216.84,20.13l-62.37 -25.66c-28.46,-13.34 20.54,10.66 -20.12,-10.1 -4.34,-2.21 -17.13,-10.16 -28.61,-15.58l-45.58 -13.78c-34.12,-4.65 -21.27,8.61 -58.9,-7.04 49.87,-17.45 21.32,-23.26 82,-43.02 78.73,-25.64 156.34,-26.02 343.31,-95.53 423,-157.24 587.87,-309.42 959.45,-496.79 121.72,-61.38 141.62,-54.99 204.91,-16.34l-29.97 28.26c-1.88,2.13 -4.85,5.56 -6.79,7.84l-71.11 90.09c-47.51,62.27 -82.47,124.96 -144.13,174.1 17.18,25.31 -4.35,6.64 28.75,14.64 54.4,-75.19 215.53,-266.29 293.39,-331.89 239.54,-201.84 376.55,-48.47 476.68,-16.67 -23.95,64.1 16.13,29.46 -61.03,72.52 -53.34,29.78 -99.26,32.14 -197.45,103.87 -23.41,57.65 -14.21,14.02 21.73,33.91 13.05,-14.92 11.72,-16.34 36.33,-31.06l138.47 -67.89c-22.77,46.85 -22.51,19.48 -39.84,30.83 -56.44,36.95 -27.49,-16.16 -46.09,52.07 164.57,60.69 607.3,77.84 805.78,41.01 23.36,-4.33 21.18,-7.41 40.85,-5.45l47.68 20.12c42.76,-107.64 157.07,-210.66 128.33,-527.23 -32,-352.49 -204.79,-650.66 -410.01,-900.75 -51.26,-62.46 -206.01,-187.92 -202.54,-293.64 1.42,-43.41 29,-90.19 59.37,-118.67 229.02,16.69 582.58,351.09 706.85,519.62 199.02,269.88 269.14,562.7 272.8,962.59 273.42,-37.45 415.08,-387.14 474.05,-620.14 84.12,-332.4 -19.97,-648.84 -168.48,-877.8 -198.37,-305.83 -633.42,-520.13 -973.4,-685.67 -77.16,-37.57 -248.41,-114.68 -306.09,-178.34 -2.17,-2.38 -4.91,-5.81 -6.89,-8.25l-21.78 -33.92 -6.23 40.3c-98.05,-54.13 -203.36,59.21 -218.49,59.16 -29.73,-10.19 -26.48,-12.23 -55.07,-25.76 -4.03,-1.91 -26.26,-12.51 -30.38,-14.07l-116.44 -53.65c-82.43,-43.35 -83.61,-3.68 -184.65,-65.08 -50.35,-30.6 -85.04,-36.63 -143.13,-62.12 -119.24,-52.34 -172.84,-92.68 -324.25,-156.43 -123.35,-51.93 -16.41,-28.77 -106.54,-76.68l-50.83 -32.53 -1.04 -87.4 66.17 -72.15c-3.23,80.7 -16.11,36.02 28.3,62.92 -25.03,-131.16 184.94,-181.9 289.65,-195.89 56.43,-38.39 155.69,-26.91 222.9,-45.75l-121.78 -35.91c-23.96,-6.29 -7.08,5.33 -20.79,-4.57 83.62,-48.43 71.89,-74.86 197.39,-77.93 265.66,-6.49 445.13,-76.23 763.82,72.33 144.86,67.52 246.22,123.56 393.68,189.33 154.6,68.95 272.02,-28.63 348.95,44.75 31.96,30.48 -14.09,11.28 67.75,59.12 83.89,-66.05 40.51,-77.18 81.87,-86.77 -16.39,-70.04 -85.09,-110.97 -137.48,-160.19 -134.69,-126.58 -355.62,-364.86 -469.72,-432.03 -66.92,-39.4 -122.48,-66.88 -183.57,-108.79 -243.15,-166.82 -196.95,-189.16 -598.29,-317.74 -194.91,-62.45 -299.72,-69.09 -528.58,-64.43 -250.5,5.1 -718.23,130.49 -930.95,271.95 -246.87,164.18 -467.12,237.92 -498,259.72 -110.63,78.09 -136.04,125.81 -217.83,231.38 -251.01,324.02 -287,259.7 -440.57,771.43 -45.85,152.79 -101.18,303.17 -151.03,458.38 -115.01,358.11 -169.75,540.64 -308.08,903.31 -60.17,157.77 -101.58,293.46 -159.99,436.02l-144.57 311.72c-34.85,58.23 -67.22,77.28 -44.96,-11.83l-39.65 -6.91z"/>
  <path class="fil4" d="M22691.31 17653.78c173.37,-31.74 324.05,105.01 114.84,192.41 -120.21,50.22 -238.63,86.59 -354.6,142.45 -411.69,198.25 -597.54,285.9 -984.98,514.42 -94.19,55.55 -204.42,130.46 -297.98,197.86 -97.26,70.07 -179.63,143.87 -275.7,218.85 -94.39,73.68 -172.11,155.66 -274.02,222.04 -174.63,113.73 -255.11,-64.4 -126.29,-199.7 475.82,-499.83 1535.08,-1166.82 2198.75,-1288.32zm-650.48 -404.24c59.64,-16.29 145.88,-34.95 212.76,-10.15 68.61,25.44 79.45,99.8 31.46,143.61 -40.1,36.6 -259.92,90.25 -333.67,119.71 -101.26,40.44 -211.15,97.35 -304,146.99 -105.92,56.62 -195.09,101.46 -292.69,159.33l-572.7 345.6c-93.37,54.91 -177.31,111.58 -275.2,175.57 -94.01,61.45 -183.87,115.01 -276.52,174.85 -222.04,143.4 -259.92,-25.4 -213.27,-96.59 20.11,-30.69 203.58,-160.95 251.82,-200.6 472.16,-388.05 1156.26,-790.15 1772.01,-958.32zm-2796.59 748.54l-7.61 60.65c255.08,171.85 552.95,1004.94 626.49,1283.22 64.08,242.48 332.27,1393.79 326.3,1580.68l555.67 -228.37c191.29,-83.93 358.36,-165.29 543.99,-242.83 365.42,-152.64 728.83,-319.77 1096.5,-476.54 373.91,-159.42 743.31,-312.74 1113.77,-473.81l1099.64 -470.49c-179.47,-177.26 -204.03,-465.18 -112.43,-743.14 -250.93,80.73 -530.05,202.31 -782.83,296.2 -517.26,192.15 -1414.91,546.75 -1866.33,829.57 -64.99,40.72 -109.27,66.01 -173.68,102.77 -34.19,19.52 -47.9,27.94 -80.72,50.39l-81.87 41.26c-14.74,20.04 -1.51,11.81 -31.94,34.36 -1.18,0.87 -36.3,18.01 -42.43,20.87 -103.51,89.27 -266.7,182.54 -422.84,329.64l-399.16 365.38c51.72,-130.28 372.84,-445.52 493.21,-548.57 57.38,-49.13 122.98,-124.26 186.16,-143.5 26.88,-57.66 45.06,-52.07 100.09,-94.55 51.14,-39.47 51.74,-46.17 114.8,-73.08 44.76,-69.32 555.59,-388.91 679.47,-458.71 692.26,-390.04 836.98,-435.98 1558.57,-727.73 177.61,-71.81 809.75,-258.17 847.67,-286.35 -118.55,-80.84 -1864.79,-992.02 -2000.18,-1055.7 -214.77,-101 -466.7,-250.35 -679.99,-325.58 -166.15,-58.61 -697.38,76.91 -855.33,131.47 -493.14,170.38 -923.1,383.82 -1304.74,718.98 -113.81,99.96 -439.21,387.4 -500.27,503.52z"/>
  <path class="fil0" d="M8731.42 11399.06c187.76,-58.64 340.09,89.46 378.75,235.88 50.58,191.57 -98.61,376.25 -236.71,406.41 -383.74,83.81 -591.59,-501.91 -142.04,-642.29zm-2336.58 436.1c117.16,-128.18 839.71,-555.86 1057.65,-585.94 -84.67,155.71 -129.85,369.55 -165.36,405.25 -2.54,166.82 -106.01,284.5 -89.59,762.71 22.44,653.57 370.75,1394.93 957.82,1660.73 503.46,227.95 982.07,49.81 1288.1,-255.98 294.54,-294.31 480.15,-671.49 535.43,-1201.36 15.81,-461.78 -6.93,-393.65 -76.69,-775.9 33.8,19.53 343.28,376.8 371.11,503.27 67.72,-39.9 -9.52,67.55 21.27,-35.15 13.18,-43.95 -1.09,-129.88 -9.31,-173.94 -67.06,-358.96 -362.86,-835.83 -597.28,-1065.92 -167.58,-164.49 -299.21,-278.93 -549.33,-396.14 -226.72,-106.25 -444.67,-190.38 -731.33,-219.18 -650.84,-65.41 -1360.23,190.27 -1780.48,562.28 -127.98,113.28 -653.28,613.73 -700.35,729.47 147.38,65.53 269,134.94 468.35,85.77z"/>
  <path class="fil3" d="M22751.38 12911.59c189.13,-14.42 724.3,93.7 943.37,121.97 297.33,38.36 631.73,84.26 919.82,143.35l-230.24 1676.54c-165.05,4.98 -280.97,-79.72 -606.21,16.27 -184.97,54.59 -322.23,149.04 -432.07,253.41 -106.57,101.25 -215.06,277.45 -189.64,499.16 48.15,419.83 753.85,726.84 1372.67,334.3 360.14,-228.44 337.13,-592.97 390.84,-991.44 54.7,-405.87 111.33,-802.27 164.49,-1206.99 51.74,-393.99 129.64,-819.2 168.59,-1215.53 23.34,-237.45 -69.24,-359.06 -275.78,-402 -186.28,-38.73 -399.24,-56.53 -590.74,-89.35 -189.28,-32.45 -1668.41,-277.72 -1793.74,-271.47 -98.19,4.9 -173.13,65.01 -213.86,118.27 -94.36,123.4 -223.38,1287.95 -248.8,1481.17 -26.6,202.22 -69.08,403.71 -89.61,597.04 -5.01,47.24 -5.51,105.42 -12.75,150.11 -4.75,29.29 -11.95,120.12 -39.74,135.96 -16.88,9.62 -274.62,-20.92 -328.64,-19.56 -917.91,23.02 -1302.05,1133.6 -359.85,1318.41 411.29,80.66 850.99,-116.46 1010.83,-337.41 135.94,-187.93 146.84,-231.3 180.01,-504.14 53.52,-440.11 189.19,-1443.38 261.04,-1808.05z"/>
  <path class="fil0" d="M15693 11703.18c416.76,-91.36 512.21,577.3 119.06,646.99 -188.65,33.44 -356.51,-108.98 -386.75,-256.24 -45.04,-219.34 100.5,-354.09 267.69,-390.75zm-1808.68 839.05c53.04,-233.67 430.29,-607.01 440.03,-641.47 -76.76,283.3 -145.69,267.92 -152.95,719.89 -24.5,1526.11 1354.29,2415.46 2195.81,1409.02 328.23,-392.55 410.97,-666.46 481.47,-1302.59l-6.58 -379.36 -21.94 -44.33c-4.22,-12.36 -10.14,-43.79 -13.31,-59.5l-88.2 -338.41c88.5,26.65 201.61,144.43 256.27,199.02 84.51,84.41 153.36,147.52 240.31,221.82l53.14 28.82c110.61,-2.17 169.75,9.2 279.58,-27.54l76.93 -42.01c-11.87,-109.3 -244.61,-464.86 -311.21,-548.94 -141.2,-178.27 -251.04,-309.81 -419.28,-455.61 -124.75,-108.12 -385.14,-256.72 -548.3,-325.47 -539.74,-227.41 -1270.37,-164.94 -1731.66,199.43 -519.38,410.26 -842.24,1323.19 -730.12,1387.23z"/>
  <path class="fil1" d="M1351.55 10031.23c-27.96,-43.37 -17.17,-87.38 -26.07,-141.57 -40.51,-246.57 -38.46,-65.54 -53.74,-444.98 -3.52,-87.44 -18.93,-203.46 -24.26,-290.66 -6.95,-113.54 -6.73,-207.2 -16.49,-320.71 -16.96,-197.19 -17.18,-410.77 -72.09,-580.86 -47.17,-146.12 -163.24,-324.43 -331.8,-332.18 -99.52,31.89 -209.45,426.54 -237.14,527.19 -54.67,198.68 -101.35,455.47 -105.33,676.85 -4.57,253.98 10.51,498.12 62.32,720.58 28.3,121.52 40.88,205.35 62.48,334.23 18.17,108.43 59.52,216.47 73.7,314.72 203.71,-4.57 193.33,-29.76 378.65,-115.39 59.14,-27.33 118.49,-57.45 170.26,-91.34 24,-15.7 58.12,-34.9 80.38,-51.5 17.16,-12.8 -4.66,7.82 15.96,-12.85 29.36,-29.45 15.76,-36.4 48.17,-68.32 50.93,-50.15 292.7,-143.6 366.34,-172.37 250.52,-97.87 229.66,-17.73 334.27,-88.87 46.54,-31.64 42.03,-26.09 89.5,-25.2 37.58,127.11 70.85,269.54 100.21,396.29l173.04 584.02c25.81,75.4 45.72,123.39 70.97,190.87l137.23 369.1c52.7,-1.29 1007.38,-301.51 1164.62,-364.25 74.26,-29.63 81.61,-14.63 152.25,-54.99l92.43 -1310.63 185.09 -1204.82c-321.01,19.05 -662.52,-57.93 -962.49,-169.11 -52.04,-19.29 -92.14,-20.75 -138.47,-36.56 -79.86,-27.23 -169.9,-54.08 -247.11,-87.96 -75.43,-33.09 -170.87,-53.33 -240.11,-95.42l-263.1 -143.74c-16.44,-9.53 -14.6,-7.47 -28.15,-16.29l-83.66 -47.25c-16.15,-8.38 -37.66,-22.28 -53.78,-31.03 -23.1,22.94 -54.11,73.58 -78.81,106.04 -54.88,72.14 -137.85,298.76 -174.31,392.81 -128.07,330.43 -210.24,503.7 -284.15,866.29 -76.47,375.15 -93.06,293.84 -200.67,556.69 -19.22,46.96 -35.35,90.29 -55.82,134.58 -10.1,21.86 -22.04,48.18 -32.68,69.13 -2.02,3.97 -12.6,24.97 -15.16,28.54 -26.48,37.04 -3.2,13.12 -32.47,30.91z"/>
  <path class="fil2" d="M10273.3 12347.97c-6.51,139.7 23.24,256.85 5.83,415.84 -25.78,235.33 -89.04,434.35 -154.26,655.28l-101.02 194.74c-59.06,79.42 -85.55,142.52 -138.84,197.56 -213.41,220.42 -679.73,495.58 -935.45,505.09 -46.98,-5.74 -171.77,22.82 -231.64,28.62 -402.02,39.01 -832.06,-9.12 -1179.05,-190.54 -493.6,-258.06 -888.65,-635.45 -1008.66,-1202.54 -55.03,-260.04 -34.05,-345.54 -56.83,-476.79 -32.62,-34.09 -29.52,-100.99 -28.52,-161.01 1.08,-64.67 10.02,-87.39 16.71,-146.01 12.75,-111.75 39.07,-181.42 46.14,-290.5 -10.83,-4.96 -5.14,17.22 -30.14,-27.51l-82.73 -15.02c-199.35,49.17 -320.97,-20.24 -468.35,-85.77 47.07,-115.75 572.37,-616.19 700.35,-729.47 420.25,-372.01 1129.64,-627.68 1780.48,-562.28 286.66,28.8 504.61,112.93 731.33,219.18 250.12,117.21 381.75,231.64 549.33,396.14 234.41,230.09 530.22,706.96 597.28,1065.92 8.23,44.06 22.49,129.99 9.31,173.94 -30.79,102.69 46.45,-4.75 -21.27,35.15zm-4121.77 1919.09c52.73,64.8 139.17,145.07 205.36,207.63 30.87,-31.47 22.45,-1.1 -2.23,-37.69l-121.53 -140.8c-32.64,-46.84 -20.53,-50.68 -38.48,-93.38l301.2 -107.62c108.38,-35.25 210.65,-40.4 347.83,-41.71 280.74,-2.69 410.5,73.95 603.88,180.21 139.5,76.65 323.19,255.48 404.46,392.48 61.03,102.88 217.58,447.81 186.3,581.01 107.44,15.26 207.89,-11.37 271.25,-0.76 251.28,27.59 722.95,-174.62 941.04,-281.68 329.92,-161.97 646.08,-423.14 842.88,-685.99 46.99,-62.77 87.07,-110.33 128.56,-177.34 433.49,-700 736.1,-1574.66 420.32,-2396.19 -104.27,-271.26 -365.1,-531.8 -553.13,-673.12 -405.1,-304.48 -1257.4,-645.62 -1759.63,-694.3 -29.34,23.46 29.29,12.06 -57.73,17.14l-393.87 -19.63c1.19,4.7 -26.43,21.75 6.87,0.9 0.98,-0.61 4.77,-3.76 5.52,-5.02 20.43,-34.59 20.1,24.59 2.18,-20.3 -98.25,-6.92 -233.61,-38.67 -323.99,-1.23 -100.22,41.51 -137.84,57.06 -259.09,70.16 -204.93,22.14 -410.94,48.34 -606.17,84.08 -323.96,59.29 -287.73,98.29 -473.85,181.94 -182.48,82.03 -256.97,178.92 -398.64,287.7 -393.16,301.88 -253.87,979.6 -381.5,1280.41l-18.96 39.15c-65.77,138.64 -72.36,389.41 -15.37,468.02 10.68,14.74 -1.51,1.97 22.15,21.14 65.03,52.67 105.25,32.84 112.51,253.45 56.09,32.09 2.54,2.19 24.95,1.72 62.66,-1.32 -39.65,-23.33 15.91,-1.72 22.76,56.19 -12.64,4.7 26.66,60.8 50.78,72.47 83.13,251.19 257.37,497.53l18.23 56.56c6.74,22.1 9.04,25.31 16.83,41.31 14.65,30.1 28.56,50.03 41.26,76.12 118.71,243.93 195.79,251.63 234.4,433.12 -10.98,11.19 -16.42,17.22 -27.92,27.3l-25.53 20.26c-1.35,-2.7 -5.99,4.6 -9.08,6.76l28.79 91.57z"/>
  <path class="fil5" d="M17055.65 5690.69c71.32,-549.26 87.86,-1101.01 -33.66,-1647.57 -199.9,-899.13 -793.83,-1572.5 -1570.8,-2055.11 -413.34,-256.74 -737.58,-433.86 -1199.47,-621.22 -899.48,-364.87 -1907,-540 -2948.1,-678.46 -557.68,-74.17 -1122.55,-85.95 -1669.3,-132.02 -551.3,-46.45 -1419.17,28.01 -1800.1,-7.43l-223.22 24.03c263.93,73.99 519.23,39.37 776.11,130.37 228.91,81.1 422.69,171.15 676.55,238.19 337.9,89.22 1186.99,240.37 1539.31,282.32 972.12,115.74 2144.03,294.4 3039.26,604.89 366.96,127.28 923.27,383.43 1230.18,591.27l272.73 193.99c199.18,138.7 563.28,457.22 721.2,634.35 66.52,74.61 153.21,183.22 210.1,256.88l405.23 615.68c190.88,323.71 414.72,848.85 496.23,1213.69 18.2,81.45 54.18,361.75 77.74,356.15z"/>
  <path class="fil2" d="M15531.43 15399.3c-7.56,-222.9 159.53,-548.89 296.06,-715.62 24.62,-30.07 15.86,-25.78 46.69,-53.66l40.78 -31.35c2.51,-1.83 6.08,-4.24 8.61,-6.06 25.3,-18.22 38.03,-27.32 59.34,-42.56 242.59,-173.42 391.37,-218.95 708.79,-219 262.2,-0.04 419.95,63.12 599.75,153.63 167.35,84.25 124.27,201.06 10.28,334.44 -86.07,100.72 -97.55,52.29 -151.11,125.49 -44.91,61.36 -16.08,97.26 -161.13,186.64l-18.32 11.16c-269.85,158.16 -420.61,207.23 -767.54,263.99 -170.72,27.91 -538.17,62.82 -672.2,-7.12zm1736.94 -3044.16c-49.56,14.34 -30.22,-16.01 -37.84,31.15 74.09,5.77 144.41,12.5 219.11,7.21 127.07,-8.99 128.82,-27.69 170.63,-43.99 -12.8,41.84 -45.37,46.88 -99.23,51.74l16.22 30.83c26.97,73.41 -38.83,15.99 -93.35,40.41 -23.63,10.59 -9.79,6.54 -15.42,13.07l-6.11 11.89c-0.34,-1.73 -1.19,4.44 -2.31,6.41 -82.63,-24.86 11.26,-6.01 -29.69,-26.1 -0.54,-0.27 -3.45,-1.35 -4.03,-1.51l-183.13 -29.12c26.21,66.11 1.96,-3.79 -4.82,37.91 -10.27,63.14 0.77,70.56 -40.56,131.61 -32.98,-80.87 33.75,-173.1 -48.53,-174.66 2.46,42.51 19.41,111.3 4.61,157.77 3.8,69.17 19.38,396.06 -38.4,457.58 5.73,157.05 -135.06,468.72 -216.92,632.44 -356.53,713.09 -1250.92,1083.44 -2007.25,754.49 -170.97,-74.36 -372.75,-219.04 -501.31,-342.07 -207.19,-198.27 -373.88,-555.17 -436.52,-826.08 -143.38,-620.12 -33.46,-502.9 -29.2,-733.92 -112.12,-64.04 210.74,-976.97 730.12,-1387.23 461.29,-364.37 1191.92,-426.84 1731.66,-199.43 163.16,68.75 423.55,217.35 548.3,325.47 168.23,145.8 278.08,277.35 419.28,455.61 66.6,84.08 299.34,439.65 311.21,548.94l-76.93 42.01c-109.83,36.74 -168.98,25.36 -279.58,27.54zm-361.91 -1435.34c20.04,-22.03 5.1,-3.69 15.77,-27.1 1.12,-2.46 0.92,-10.45 2.53,-15.02 110.2,36.02 91,-25.99 221.85,5.66 42.56,10.29 -14.27,-0.96 17.15,5.25 124.55,24.62 118.11,-7.58 259.65,58.58l19.43 9.46c19.45,9.65 60.42,31.48 66.5,44.12 29.73,61.78 -66.58,18.8 39.15,107.84 -41.69,13 -4.81,-25.44 -32.29,11.5 -32.42,43.6 15.97,-10.86 -8.87,37.24 -17,32.92 2.29,7.56 -27.18,4.79l-30.05 15.4c3,2.24 13.83,10.2 17.29,12.5 20,13.28 21.04,11.64 38.49,21.35l3.2 85.51c31.44,-29.69 21.86,-36.75 42.12,-71.18 61.68,47.14 53.09,14.54 113.12,44.18 14.83,64.1 -22.54,31.7 5.9,66.57 1.57,1.92 18.78,11.75 23.13,13.88 -97.75,0.07 -40.58,-12.55 -58.27,32.06 40.74,25.03 138.7,24.75 143.16,28.63 33.23,28.92 -27.05,86.7 36.55,96.54 61.08,9.45 6.09,-66.61 104.3,-53.29 1.05,0.14 4.82,0.98 5.83,1.11 0.96,0.14 4.64,0.64 5.59,0.76l32.66 2.88c9.69,1.95 9.55,-19.91 49.62,28.75l21.9 36.13c11.27,28.56 8.46,10.56 9.68,49.91 34.26,-14.82 6.79,-6.77 39.86,-16.05 37.32,-10.47 -7.65,-10.73 18.07,-0.57 -9.2,15.94 -17.8,40.11 -28.84,51.39 -1.17,1.2 -4.54,3.67 -5.77,4.7l-12.84 7.14c-1.34,0.96 -5.26,2.69 -6.59,3.75l-77.08 114.62c89.58,59.57 -45.57,37.6 -71.39,35.89 -0.01,0.19 -2.97,44.87 -2.91,46.11 0.13,2.51 0.71,6.77 0.96,9.13l8.48 56.82c-2.32,21.49 1.52,3 -6.93,25.14 -23.35,61.14 -4.5,52.03 -20.08,77.23 -6.32,10.21 -13.05,11.92 -20.54,17.76 -9.12,-73.45 -6.3,-24.81 -25.36,-71.73l-6.66 -16.18c-91.79,211.45 -14.43,69.56 -16.25,191.83l-142.36 90.41c-13.95,24.22 1.83,18.84 -14.97,48.66 -24.46,-44.53 25.69,63.18 -5.22,-30.56 -18.23,-55.25 -46.17,-84.99 -76.1,-127.91 -91.34,-130.99 -155.03,-294.33 -252.33,-418.07 -105.42,-134.06 -232.1,-243.34 -350.68,-363.62 -52.99,-53.75 -101.9,-89.05 -149.72,-128.09 -53.87,-44 -108.98,-79.75 -167.21,-111.66 1.96,-19.98 41.52,-163.23 134.88,-168.2l35.91 4.08c76.71,1.17 29.49,-35.79 83.77,13.98zm533.75 3889.67c-29.93,-28.44 -33.83,35.62 -23.27,-35.72 53.81,-39.69 66.91,-72.95 80.87,-108.59l35.12 -79.52c49.74,-124.84 98.22,-142.05 133.41,-202.03l58.48 -118.02c101.04,-173.12 52.04,-52.79 166.08,-314.16 206.39,-473.03 136.86,-553.6 197.13,-813.31 16.77,-72.22 26.87,-43.47 61.54,-94.59l22.74 -64.63c27.15,-197.39 56.7,-1164.99 28.38,-1355.04 -65.98,-442.72 -454.44,-394.51 -531.63,-652.07 -13.49,-45.01 20.26,-13.62 -13.48,-31.69 -63.81,-44.07 -285.2,-109.57 -373.52,-131.54 -125.19,-31.12 -261.26,-37.33 -379.6,-62.65 -91.3,-19.55 23.12,-12.27 -67.95,-27.83l-114.3 -7.57c-73.42,-6.09 -151.25,-26.69 -213.17,-36.36 -124.06,-19.37 -357.24,-9.14 -496.68,-17.18l109.37 -32.17c-775.64,25.53 -1419.63,196.36 -2022.03,639.84 -357.02,262.84 -542.91,502.07 -618.41,969.71l-41.19 283.76c-55.29,656.19 163.4,1283.92 473.68,1818.66 99.25,171.06 209.68,291.94 323.51,434.33 213.13,266.62 527.62,479.35 921.27,606.29 644.79,207.92 1296.51,118.21 1854.11,-225.21 109.27,-67.29 369.65,-260.14 429.52,-342.69z"/>
  <path class="fil1" d="M11241.43 19175.09c-104.71,14 -314.68,64.73 -289.65,195.89 70.52,75.2 606.07,165.18 875.17,299.5 88.41,44.11 178.39,95.07 263.9,130.81l3.52 53.17 21.78 33.92c1.98,2.44 4.72,5.87 6.89,8.25 57.68,63.67 228.94,140.78 306.09,178.34 339.98,165.54 775.02,379.84 973.4,685.67 148.51,228.96 252.6,545.4 168.48,877.8 -58.97,232.99 -200.63,582.68 -474.05,620.14 -3.66,-399.89 -73.78,-692.72 -272.8,-962.59 -124.27,-168.53 -477.83,-502.93 -706.85,-519.62 -30.37,28.48 -57.95,75.26 -59.37,118.67 -3.47,105.72 151.28,231.18 202.54,293.64 205.22,250.09 378.01,548.26 410.01,900.75 28.73,316.57 -85.58,419.6 -128.33,527.23 -326.81,483.83 -1161.14,413.28 -1318.97,282.49 6.26,-58.7 77.46,-122.05 128.98,-190.65l185.07 -165.38c98.18,-71.73 144.11,-74.1 197.45,-103.87 77.16,-43.06 37.08,-8.41 61.03,-72.52 -100.13,-31.8 -237.14,-185.18 -476.68,16.67 -77.85,65.6 -238.99,256.7 -293.39,331.89 -45.95,75 -260.13,281.99 -350.5,314.96 -41.96,50.13 -186.08,120.17 -262.86,150.33 -114.99,45.15 -242.73,50.2 -380.29,41.24 38.28,26.42 80.9,33.47 133.12,32.18 40.3,-1.01 91.35,-10.6 133.57,-14.63l-57.47 26.65c267.6,8.8 53.6,34.98 338.51,91.58 68.96,13.7 123.62,23.19 186.32,34.99 261.44,49.15 827.71,97.43 1024.73,59.94 25.89,-4.93 79.17,-17.92 96.68,-20.62 193.88,-29.87 83.07,-26.4 172.47,-46.03l431.03 -166.18c28.55,-15.28 26.93,-33.09 56.23,-58.83l90.87 -69.74c17.88,-19.65 19.79,-43.02 43.92,-58.3 61.4,-38.9 17.18,27.78 112.92,-61.46 40.37,-37.63 52.39,-39.8 67.25,-73.13 0.73,-1.63 1.05,-6.18 1.89,-7.87 24.78,-49.64 14.61,-18.53 32.95,-35.13l70.71 -104.03c3.57,-13.8 0.85,-16.89 9.33,-34 23.41,-47.23 55.31,-50.36 92.93,-68.39l57.77 -29.91c3,-1.46 6.46,-3.66 9.55,-5.05 51.96,-23.16 47.61,-9.07 93.2,-23.77 4.5,-1.45 15.75,-7.28 20.05,-8.99l130.28 -59.13c45.41,-17.27 112.27,-30.19 169.24,-49.42 81.69,-27.57 49.42,-23.35 70.76,-44.35l14.89 -14.48c61.24,-57.34 115.25,-217.11 128.65,-275.52 6.09,-26.56 4.68,-62.69 8.87,-91.75 16.25,-112.79 56.31,-223.46 78.83,-359.6 27.31,-165.05 43.58,-673.59 2.48,-825.51l-6.08 -81.58c-0.26,-20.6 -4.29,-81.13 -8.85,-99.68 -12.63,-51.52 -38.65,-34.2 -70.14,-126.54 -71.38,6.76 -22.72,10.94 -42.58,-7.9 8.07,-68.32 2.06,-121.16 -1.9,-189.39 -6.77,-116.79 10.9,-151.34 -31.75,-175.29l8.07 360.19c-119.06,-281.7 -483.72,-454.74 -648.21,-590.5 84.41,-43.37 285.34,-115.41 334.74,-196.71 -11.69,-1.64 -26.24,-7.08 -29.7,-7.7 -22.97,-4.13 4.27,-2.24 -23.88,-2.27 -206.56,-0.26 -71.96,-14.86 -164.86,-32.81 -2.26,-0.44 -46.16,-3.35 -63.04,-6.94 -65.91,-14.01 -74.08,-35.91 -175.93,-44.43l39.57 -39.23c23.07,-26.01 13.4,-22.89 31.4,-40.94 19.66,-19.74 119.96,-66.99 180.82,-178.95 3.58,-6.57 13.45,-31.95 20.13,-45.76 -66.5,29 -181.87,252.05 -414.32,250.29 -86.65,-0.65 -408.81,-140.89 -482.43,-179.9 -307.4,-162.9 -641.62,-316.96 -1064.16,-250.23z"/>
  <path class="fil6" d="M20189.43 20922.64c5.97,-186.89 -262.22,-1338.2 -326.3,-1580.68 -73.54,-278.28 -371.42,-1111.37 -626.49,-1283.22l7.61 -60.65c-53,35.48 -47.89,46.94 -112.07,77.89 -562.09,271.05 -931.85,191.92 -1513.08,571.52 -113.68,74.24 -379.05,242.56 -413.3,353.95 65.33,50.16 119.51,80.56 181.13,120.13l561.13 357.18c389.07,237.38 752.08,455.36 1127.67,707.53 124.92,83.86 240.06,158.16 372.38,239.63 132.09,81.32 245.58,157.77 375.31,237.02l265.54 185.62c38.92,30.47 42.64,45.52 100.47,74.08z"/>
  <path class="fil7" d="M18242.6 16288.37c158.42,1.38 416.5,-223.7 520.19,-343.97 86.61,-100.47 139.99,-132.71 245.39,-279.24 422.51,-587.38 699.55,-1446.9 606.54,-2194.48 -34.16,-274.62 -107.66,-568.78 -317.1,-731.92 -67.16,-52.32 -141.12,-116.41 -260.62,-103.94l-82.47 469.69c-57.72,268.15 -155.5,593.97 -266.27,843.33 -238.08,535.99 -130.21,390.86 -185.4,938.89 -30.91,306.89 -70.2,669 -137.15,968.27 -33.47,149.64 -90.11,289.44 -123.12,433.36z"/>
  <path class="fil1" d="M8520.43 8501.68c-61.85,-11.02 -112.35,-21.95 -173.06,-35.76 -20.11,-4.58 -63.62,-11.98 -83.79,-18.83 -45.15,-15.34 -50.15,3.94 -41.05,-33.72 -24.76,18.38 -8.26,3.45 -26.87,25.04 -2.38,2.76 -13.59,18.71 -18.79,25.33 -61.51,78.39 -328.44,350.77 -402.51,383.11 -166.93,72.9 -73.16,222.01 -313.15,226.07 -28.17,-45.14 -52.75,-58.46 -83.12,-117.55 -31.31,-60.89 -38.74,-78.9 -37.97,-166.09 -25.23,-67.46 2.71,-7.98 -26.68,-14.57 -0.56,-79.86 -6.45,-96.65 -31.2,-160.6 -72.93,-188.46 54.54,-65.11 -36.47,-205.2l9.74 59.54c-160.72,117.82 -698.89,206.11 -1001.01,532.73 -124.67,134.77 -302.97,233.95 -319.11,444.26 -29.73,387.38 537.44,-240.35 1534.52,-285.12 328.06,-14.73 935.06,74.44 1259.61,175.9l697.29 279.17c540.95,289.22 821.36,-303.14 475.26,-563.17 -177.56,-133.42 -406.03,-217.06 -651.39,-311.38 -328.9,-126.44 -417.59,-137.85 -730.26,-239.16z"/>
  <path class="fil7" d="M1249.57 13887.31c76.07,-10.54 61.01,-73.92 175.76,-173.02 155.77,-134.54 303.5,-165.93 500.68,-94.75l214.17 121.31c108.53,75.12 174.61,134.4 132.02,259.26 -39.44,115.62 -228.46,300.44 -220.73,689.68 7.73,389.54 239.42,713.34 510.91,842.55 131.34,62.51 379.86,139.95 537.16,149.81 188.25,11.81 425.14,-71.23 499.37,-173.66 135.2,-186.55 -100.91,-300.92 -216.71,-387.23 -147.32,-109.81 -235.89,-177.63 -268.38,-402.5 -29.67,-205.34 -24.83,-534.19 -57.6,-627.61l-188.76 -320.05c-20.28,-28.62 -48.13,-61.39 -72.68,-87.87 -165.76,-178.81 -521.9,-443.95 -889.03,-464.5 -230.32,-12.89 -386.15,62.34 -495.93,188.78 -54.24,62.48 -224.26,354.92 -160.24,479.8z"/>
  <path class="fil5" d="M18862.23 3476.5c-21.24,139.98 -16.43,283.15 -38.55,418.72 -38.95,238.75 -203.55,829.8 -277.13,1049.67 -78.31,233.98 -172.1,404.39 -270.83,619.94 -47.43,103.56 -92.11,188.51 -140.22,296.89l-144.57 285.48c510.91,12.53 698.07,106.66 1076.29,296.05 416.76,208.7 678.68,378.85 1041.86,661.05 180.79,140.48 342.63,341.45 502.57,518.26 59.22,65.46 114.66,107.76 175.14,174.85 67,74.3 370.26,565.96 383.09,620.31 16.38,-18.79 28.15,-22 21.7,-88.31 -2.59,-26.61 -13.24,-64.32 -18.42,-91.7 -14.26,-339.79 -349.82,-1056 -576.93,-1371.66 -110.96,-154.22 -255.3,-296.45 -387.75,-428.24 -189.75,-188.82 -418.1,-350.19 -664.91,-471.52 -336.44,-165.38 -647.56,-233.58 -1066.62,-246.9 -26.03,-99.08 292.59,-564.08 387.58,-993.65 88.98,-402.46 124.12,-853.3 28.31,-1270.93 -32.99,13.44 -12.86,-5.97 -30.62,21.69z"/>
  <path class="fil4" d="M6473.39 12475.21c22.78,131.26 1.8,216.75 56.83,476.79 120.01,567.09 515.06,944.48 1008.66,1202.54 346.99,181.42 777.04,229.55 1179.05,190.54 59.87,-5.81 184.66,-34.36 231.64,-28.62 23.93,-23.98 14.75,-23.93 86.47,-44.17 37.4,-10.54 53.71,-14.97 89.13,-27.59 65.26,-23.28 112.05,-41.73 166.09,-65.46 241.55,-106.09 228.36,-133.39 350.22,-216.81 197.74,-135.35 166.23,-156.68 236.31,-230.7 126.57,-133.66 37.58,-54.86 143.48,-191.4 115.14,-148.47 110.96,-395.16 189.79,-627.06 30.05,-88.41 46.42,-280.67 5.65,-400.7 -26.61,-78.35 -12.33,-42.45 -60.36,-101.41 -80.72,-99.1 -91.4,-141.11 -122.53,-272.83 -1.86,3.13 -3.98,7.65 -5.08,9.7l-20.41 37.67c-38.15,86.95 38.38,321.04 -29.46,434.89 -55.28,529.87 -240.89,907.05 -535.43,1201.36 -306.03,305.79 -784.64,483.93 -1288.1,255.98 -587.07,-265.8 -935.38,-1007.16 -957.82,-1660.73 -16.42,-478.21 87.06,-595.9 89.59,-762.71l-6.4 -19.91c-38.56,68.21 -23.75,44.81 -44.14,137.74 -16.54,75.38 -29.02,91.49 -65.68,112.36 -152.35,86.68 -595.11,265.96 -707.23,370.44l9.71 220.11z"/>
  <path class="fil1" d="M15236.54 8945.28c-338.86,44.03 -1167.92,182.23 -1338.86,503.23 -98.01,184.04 27.95,355.61 140.98,421.77 344.84,201.85 1006.47,-334.14 2137.29,-202.31 789.49,92.04 1040.61,415.62 1114.19,419.65 156.23,8.57 102.68,-291.76 -93.63,-506.15 -31.81,-34.74 -40.3,-56.43 -72.27,-88.39 -56.31,-56.3 -108.97,-89.5 -170.25,-135.66 -157.43,-118.55 -423.1,-239.55 -615.71,-303.84 -329.05,-109.82 -724.13,-157.38 -1101.74,-108.32z"/>
  <path class="fil5" d="M9563.13 4229.49c60.61,-294.94 -39.34,-488.73 -246.49,-577.23 -259.02,-110.66 -443.93,-18.6 -677.56,59.67 -198.95,66.65 -418.5,153.66 -624.96,231.03 -159.63,59.83 -160.66,63.55 -259.03,163.71 -296.78,302.21 -113.01,670.28 151.42,821.73 356.45,204.15 1044.92,79.54 1332.12,-183.02 141.39,-129.26 279.76,-298.24 324.49,-515.9z"/>
  <path class="fil7" d="M4447.59 10374.54c58.31,25.75 4.84,-18.16 23.69,33.49 14.33,39.27 6.58,128.06 5.05,173.11 -2.49,72.85 -10.15,145.73 -9.13,218.83 170.54,-17.01 139.2,-11.67 170.97,-178.08l195.04 -869.39c25.78,-99.76 41.37,-190.87 66.88,-283.05 26.18,-94.62 59.38,-171.32 82.42,-268.63 23.71,-100.2 51.02,-164.46 76.62,-272.25 31.38,-132.15 49.15,-145.13 177.22,-187.48 436.29,-144.26 1096.79,-420.92 1517.47,-608.96 161.05,-71.98 327.44,-182.9 458.37,-263.34l15.17 312.14c-0.33,-115.92 -0.97,-222.64 4.55,-338.24 5.44,-113.87 28.82,-260.12 30.27,-345.48 -44.87,13.35 -185.63,111.26 -240.89,144.02 -92.07,54.59 -161.08,93.71 -266.08,142.22 -191.85,88.64 -374.92,152.75 -587.74,227.67 -450.17,158.45 -874.88,194.95 -1395.91,236.97 -107.65,45.25 -200.02,863.8 -216.03,1005.11 -41.41,365.45 -77.97,748.63 -107.93,1121.34z"/>
  <path class="fil7" d="M5134.24 16711.22c46.77,75.45 296.03,321.53 372.65,392.89 426.12,396.91 788.32,659.76 1305.58,967.85 324.92,193.54 648.26,344.52 1016.8,497.7 195.36,81.2 951.81,374.03 1144.02,372.82 27.72,-29.98 39.29,-41.67 59.54,-86.47 -29.95,-26.14 -22.06,35.18 -25.56,-34.25l13.8 -16.59c2.24,-2.78 10.24,-12.92 12.47,-15.76 8.65,-11.02 11.1,-14.36 19.37,-25.31 -172.46,-34.27 -532.87,-174.05 -708.43,-240.17 -112.1,-42.21 -216.48,-95.02 -333.05,-148.67l-581.7 -306.86c-3.8,-2.2 -15.16,-8.43 -18.98,-10.67l-310.04 -185.34c-171.95,-111.2 -261.2,-161.4 -426.88,-288.05 -32.5,-24.84 -35.2,-27.02 -66.76,-48.64 -2.72,-1.86 -6.44,-4.15 -9.14,-6.06 -155.02,-110 -324.81,-222.86 -460.27,-358.36 -42,-42.01 -75.5,-61.95 -122.85,-108.08l-236.57 -217.27c-2.94,-3.19 -10.7,-12.81 -13.49,-16l-230.13 -236.82c-54.69,-75.19 -93.33,-93.77 -140.99,-147.67l-436.12 -570.22c-16.35,-22.29 -36.17,-42.64 -51.87,-64.49l-28.75 -44.33c-42.78,-64.27 -96.87,-180.02 -174.69,-210.65 -47.79,26.11 -96.85,217.18 -182.96,313.54l43.33 53.49c60.46,115.04 68.75,119.7 160.22,217.26 64.04,68.31 72.82,94.94 112.28,122.9l21.31 21.56c0.41,0.92 -2.47,3.98 7.37,24.58 10.37,21.7 22.55,30.29 35.43,47.88 13.67,18.68 20.26,33.06 33.54,55.95l161.88 200.14c37.31,43.47 -2.69,23.63 51.24,38.27l-11.59 59.86z"/>
  <path class="fil7" d="M8222.53 8413.36c-9.11,37.66 -4.1,18.39 41.05,33.72 20.17,6.85 63.68,14.25 83.79,18.83 60.72,13.81 111.21,24.74 173.06,35.76l430.46 -344.01c519.58,-388.37 1543.75,-899.33 2176.81,-964.89 570.71,-59.11 928.06,-70.42 1499.49,-74.46 171.35,-1.21 383.28,1.35 541.39,-47.71 52.97,-16.43 141,-17.89 162.27,-30.72 -158.49,12.28 -557.72,-99.08 -731.57,-131.26 -736.01,-136.2 -1668.05,-250.32 -2332.21,43.4 -611.41,270.39 -1071.82,657.31 -1572.64,1051.01 -78.16,61.44 -172.31,133.53 -240.75,196.44l-231.16 213.88z"/>
  <path class="fil0" d="M9916.87 15898.12c53.88,27.44 398.3,322.63 777.64,504.8 790.25,379.5 1863.04,466.4 2683.85,100.84 73.99,-32.95 143.48,-67.07 217.27,-102.85 87.32,-42.32 138.78,-82.5 208.68,-124.1 50.61,-71.41 102.06,-157.04 20.36,-264.62 -159.89,-210.52 -360.51,78.83 -754.6,198.56 -834.03,253.41 -1641.39,128.72 -2382.53,-252.53 -437.46,-225.04 -498.34,-434.22 -702.75,-283.76 -165.04,121.47 -83.66,173.93 -67.92,223.65z"/>
  <path class="fil7" d="M18237.26 10595.9c26.33,34.6 76.44,62.33 117.94,75.49 15.2,-639.49 -236.49,-2007.35 -586.37,-2536.19 -197.18,-298.03 -593.34,-496.5 -928.14,-631.28 -381.34,-153.53 -767.87,-262.67 -1205.13,-355.66 -7.76,17.4 10.39,51.66 -105.81,31.61 -34.41,-5.95 -67.98,-14.94 -97.08,-20.85 -71.78,-14.6 -113.11,-30.57 -200.36,-30.57 34.35,-21.28 395.7,72.03 403.96,75.71l18.84 10.22c2.79,1.38 6.27,3.7 9.07,5.02 80.97,38.15 138.07,7.85 206.19,40.33 38.26,18.25 44.55,44.2 92.16,73.31 221.1,135.24 381.19,217.34 608.3,382.57 169.31,123.18 158.44,134.8 262.3,218.17 45.29,36.35 65.8,36.15 66.8,108.82 59.14,-21.39 15.83,-31.14 130.23,73.25 47.24,43.09 87.53,69.28 130.72,117.23 92.44,102.64 202.96,203.32 290.68,320.97 73.31,98.33 241.4,457.37 289.14,571.68 80.59,192.97 209.67,518.36 258.07,716.75 34.97,143.35 83.1,255.12 104.77,388.92 10.6,65.44 24.15,157.17 37.9,214.39 34.25,142.61 91.99,40.78 95.82,150.12z"/>
  <path class="fil7" d="M15531.43 15399.3c134.04,69.94 501.49,35.03 672.2,7.12 346.92,-56.76 497.69,-105.83 767.54,-263.99l18.32 -11.16c145.05,-89.38 116.23,-125.28 161.13,-186.64 53.56,-73.2 65.04,-24.77 151.11,-125.49 114,-133.39 157.08,-250.2 -10.28,-334.44 -179.81,-90.51 -337.55,-153.67 -599.75,-153.63 -317.42,0.05 -466.19,45.57 -708.79,219 -21.31,15.24 -34.04,24.35 -59.34,42.56 -2.53,1.83 -6.1,4.24 -8.61,6.06l-40.78 31.35c-30.82,27.88 -22.06,23.58 -46.69,53.66 -136.53,166.73 -303.62,492.72 -296.06,715.62z"/>
  <path class="fil4" d="M13884.32 12542.23c-4.26,231.01 -114.18,113.79 29.2,733.92 62.64,270.91 229.33,627.8 436.52,826.08 128.56,123.03 330.34,267.71 501.31,342.07 756.33,328.95 1650.72,-41.4 2007.25,-754.49 81.86,-163.72 222.65,-475.4 216.92,-632.44 -6.71,-95.27 15.8,-175.26 5.99,-277.96 -5.04,-52.81 -1.88,-93.24 -36.97,-114.54l-76.09 -37.18 -34.93 57.19c-20.43,-217.69 -81.7,-68.8 -54.96,-171.49 -2.78,138.45 2.8,168.54 -29.89,213.7 -70.49,636.13 -153.24,910.04 -481.47,1302.59 -841.53,1006.45 -2220.31,117.1 -2195.81,-1409.02 7.26,-451.97 76.19,-436.59 152.95,-719.89 -9.74,34.45 -386.99,407.8 -440.03,641.47z"/>
  <path class="fil7" d="M5647.22 15176.56c16.44,106.62 42.61,188.41 98.35,276.14 46.76,73.61 87.04,150.76 148.77,215 312.65,325.37 338.95,322.61 796.47,440.47 274.85,70.81 580.99,-5.84 829.18,-118.75 169.69,-77.2 177.14,-85.63 297.91,-190.82 -99.36,-3.26 -244.51,-38.98 -339.73,-65.86l-742.07 -264.73c-49.32,-20.81 -75.29,-41.93 -120.6,-67.48l-570.21 -408.71c-2.24,-2.09 -5.42,-4.97 -7.71,-7 -2.29,-2.05 -5.61,-4.77 -7.95,-6.78 -34.43,-29.67 -64.35,-57.16 -97.73,-90.77 -96.16,-96.82 -144.26,-154.35 -234.03,-151.67 -29.23,140.92 -79.59,253.27 -50.66,440.95z"/>
  <path class="fil7" d="M6356.89 14474.69c129.67,173.77 580.88,441.65 820.02,538.82 249.15,101.24 532.11,179 810.25,204.97 60.31,5.63 272.43,25.41 322.42,-12.05 -63.35,-10.62 -163.81,16.01 -271.25,0.76 31.28,-133.2 -125.27,-478.13 -186.3,-581.01 -81.27,-137 -264.96,-315.83 -404.46,-392.48 -193.38,-106.26 -323.14,-182.9 -603.88,-180.21 -137.18,1.31 -239.46,6.46 -347.83,41.71l-301.2 107.62c17.96,42.7 5.84,46.53 38.48,93.38l121.53 140.8c24.68,36.59 33.1,6.22 2.23,37.69z"/>
  <path class="fil8" d="M8321.98 21831.68l39.65 6.91c-22.25,89.11 10.12,70.06 44.96,11.83l144.57 -311.72c58.41,-142.57 99.82,-278.26 159.99,-436.02 138.33,-362.67 193.07,-545.21 308.08,-903.31 49.84,-155.21 105.17,-305.59 151.03,-458.38 153.57,-511.72 189.56,-447.4 440.57,-771.43 81.78,-105.57 107.19,-153.28 217.83,-231.38 30.87,-21.8 251.12,-95.54 498,-259.72 212.72,-141.46 680.45,-266.85 930.95,-271.95 228.86,-4.66 333.66,1.98 528.58,64.43 401.35,128.58 355.15,150.92 598.29,317.74 61.08,41.92 116.65,69.39 183.57,108.79 114.1,67.17 335.03,305.46 469.72,432.03 52.39,49.23 121.09,90.16 137.48,160.19 3.69,3.15 12.49,9.66 14.48,11.09 1.89,1.36 9.94,11.07 11.56,7.61 1.92,-4.06 9.38,5.49 15.34,8.53l-7.08 -66.34c-22.27,-165.1 -268.21,-503.1 -365.18,-568.07 -300.7,-201.47 -440.94,-391.17 -979.79,-565.19 -352.4,-113.81 -695.72,-120.69 -1047.99,5.05 -330.43,117.94 -599.14,208.26 -857.13,381.8 -329.47,221.63 -589.94,435.88 -758.9,800.76 -36.49,78.8 -69.06,126.87 -106.76,198.71 -116.64,222.28 -415.79,1112.77 -489.81,1359.66 -47.52,158.53 -99.04,315.55 -146.27,481 -43.06,150.83 -107.5,335.01 -135.74,487.38z"/>
  <path class="fil8" d="M6151.53 14267.06l-28.79 -91.57c3.1,-2.16 7.73,-9.46 9.08,-6.76l25.53 -20.26c11.5,-10.08 16.93,-16.11 27.92,-27.3 -38.62,-181.5 -115.7,-189.19 -234.4,-433.12 -12.7,-26.09 -26.61,-46.02 -41.26,-76.12 -7.79,-16 -10.09,-19.21 -16.83,-41.31l-18.23 -56.56c-174.24,-246.34 -206.59,-425.06 -257.37,-497.53 -39.3,-56.1 -3.9,-4.6 -26.66,-60.8 -55.56,-21.61 46.75,0.4 -15.91,1.72 -22.41,0.47 31.14,30.36 -24.95,-1.72 -7.25,-220.61 -47.48,-200.77 -112.51,-253.45 -23.66,-19.17 -11.47,-6.4 -22.15,-21.14 -56.99,-78.61 -50.4,-329.38 15.37,-468.02l18.96 -39.15c127.62,-300.81 -11.66,-978.53 381.5,-1280.41 141.67,-108.78 216.17,-205.68 398.64,-287.7 186.12,-83.65 149.9,-122.65 473.85,-181.94 195.23,-35.73 401.24,-61.93 606.17,-84.08 121.25,-13.11 158.87,-28.66 259.09,-70.16 90.39,-37.44 225.74,-5.68 323.99,1.23 17.91,44.9 18.24,-14.29 -2.18,20.3 -0.75,1.26 -4.54,4.41 -5.52,5.02 -33.3,20.85 -5.68,3.8 -6.87,-0.9l393.87 19.63c87.02,-5.08 28.39,6.32 57.73,-17.14 -886.96,-179.06 -2622.78,-141.73 -2967.92,884.96 -229.16,681.69 -3.28,1822.2 372.22,2489.57 129.76,230.61 171.14,269.17 300.72,456.64 38.72,56 83.31,91.9 116.9,138.08z"/>
  <path class="fil7" d="M16906.45 10919.79c-54.27,-49.77 -7.06,-12.81 -83.77,-13.98l-35.91 -4.08c-93.36,4.98 -132.92,148.22 -134.88,168.2 58.24,31.91 113.34,67.66 167.21,111.66 47.81,39.05 96.73,74.34 149.72,128.09 118.57,120.28 245.26,229.56 350.68,363.62 97.3,123.74 160.99,287.08 252.33,418.07 29.93,42.93 57.88,72.66 76.1,127.91 30.91,93.74 -19.24,-13.98 5.22,30.56 16.8,-29.82 1.01,-24.44 14.97,-48.66l142.36 -90.41c1.82,-122.27 -75.54,19.62 16.25,-191.83l6.66 16.18c19.06,46.92 16.24,-1.72 25.36,71.73 7.49,-5.84 14.21,-7.56 20.54,-17.76 15.59,-25.2 -3.26,-16.09 20.08,-77.23 8.45,-22.13 4.61,-3.65 6.93,-25.14l-8.48 -56.82c-0.25,-2.36 -0.84,-6.62 -0.96,-9.13 -0.06,-1.24 2.9,-45.93 2.91,-46.11 25.83,1.71 160.97,23.69 71.39,-35.89l77.08 -114.62c1.33,-1.06 5.25,-2.79 6.59,-3.75l12.84 -7.14c1.23,-1.03 4.6,-3.5 5.77,-4.7 11.04,-11.29 19.64,-35.45 28.84,-51.39 -25.72,-10.16 19.24,-9.9 -18.07,0.57 -33.06,9.28 -5.6,1.23 -39.86,16.05 -1.22,-39.35 1.59,-21.36 -9.68,-49.91l-21.9 -36.13c-40.06,-48.67 -39.92,-26.8 -49.62,-28.75l-32.66 -2.88c-0.95,-0.11 -4.62,-0.62 -5.59,-0.76 -1.01,-0.13 -4.78,-0.97 -5.83,-1.11 -98.22,-13.32 -43.22,62.73 -104.3,53.29 -63.6,-9.84 -3.32,-67.63 -36.55,-96.54 -4.46,-3.87 -102.42,-3.6 -143.16,-28.63 17.69,-44.62 -39.48,-31.99 58.27,-32.06 -4.36,-2.13 -21.56,-11.96 -23.13,-13.88 -28.44,-34.87 8.94,-2.47 -5.9,-66.57 -60.03,-29.64 -51.44,2.96 -113.12,-44.18 -20.26,34.42 -10.68,41.49 -42.12,71.18l-3.2 -85.51c-17.45,-9.7 -18.49,-8.06 -38.49,-21.35 -3.45,-2.29 -14.29,-10.26 -17.29,-12.5l30.05 -15.4c29.47,2.77 10.19,28.13 27.18,-4.79 24.84,-48.1 -23.55,6.35 8.87,-37.24 27.48,-36.94 -9.39,1.5 32.29,-11.5 -105.73,-89.05 -9.42,-46.06 -39.15,-107.84 -6.08,-12.64 -47.06,-34.46 -66.5,-44.12l-19.43 -9.46c-141.54,-66.17 -135.1,-33.96 -259.65,-58.58 -31.42,-6.21 25.42,5.04 -17.15,-5.25 -130.84,-31.64 -111.65,30.36 -221.85,-5.66 -1.61,4.57 -1.42,12.56 -2.53,15.02 -10.67,23.41 4.27,5.07 -15.77,27.1z"/>
  <path class="fil6" d="M22691.31 17653.78c-663.66,121.5 -1722.92,788.49 -2198.75,1288.32 -128.82,135.3 -48.34,313.43 126.29,199.7 101.92,-66.39 179.63,-148.36 274.02,-222.04 96.07,-74.98 178.44,-148.77 275.7,-218.85 93.56,-67.4 203.79,-142.31 297.98,-197.86 387.45,-228.51 573.29,-316.16 984.98,-514.42 115.97,-55.85 234.39,-92.22 354.6,-142.45 209.21,-87.4 58.54,-224.15 -114.84,-192.41z"/>
  <path class="fil3" d="M7121.17 20225.09c210.42,-67.17 76.31,-174.07 577.26,109.43 50.92,28.81 82.27,56.02 121.67,80.95 186.03,117.64 241.14,184.07 348.4,261.3 -8.03,93.71 -34.38,164.05 -56.69,248.54 -24.51,92.86 -24.84,195.64 -35.68,261.24l263.04 -774.56c6.26,-76 -134.6,-564.14 -173.9,-724.11 -15.09,-61.42 -31.36,-54.77 -33.37,-65.5 -0.82,-4.4 -4.21,-5.04 -6.23,-7.63 -115.19,13.65 -470.45,185.86 -555.29,245.2 -84.57,59.14 -155.22,107.7 -235.43,172.48l-163.1 127.78c-2.1,2 -5.23,4.89 -7.3,7 -32.79,33.28 -19.85,16.2 -43.38,57.87z"/>
  <path class="fil3" d="M14161.13 21929.55c2.36,-4.64 4.86,-16.56 5.77,-14.5 0.88,2.02 4.15,-10.14 5.23,-14.39 24.49,-96.76 -21.59,-533 71.41,-770.8l90.44 -228.95c15.98,-112.02 43.65,-49.09 50.7,-110.02 4.47,-38.63 -7.93,-36.22 20.01,-82.02l219.64 -180.24c15,-4.68 19.36,-3.35 35.08,-8.95 80.44,-28.66 5.54,-46.47 205.16,-73.47 125.97,-17.04 120.66,-4.57 218.55,-4.18l-126.41 -96.87c-44.04,-32 -81.88,-71.85 -115.7,-105.07 -119.8,-117.69 -349.68,-286.78 -493.9,-378.45 -43.43,-27.61 -242.76,-167.36 -289.16,-112.61 -46.25,54.58 119.51,1305.42 114.92,1597.86 -3.09,196.4 -13.4,391.11 -11.72,582.65z"/>
  <path class="fil6" d="M22040.83 17249.55c-615.74,168.17 -1299.84,570.27 -1772.01,958.32 -48.24,39.65 -231.71,169.91 -251.82,200.6 -46.65,71.19 -8.77,239.99 213.27,96.59 92.65,-59.83 182.51,-113.39 276.52,-174.85 97.89,-63.99 181.83,-120.66 275.2,-175.57l572.7 -345.6c97.6,-57.87 186.77,-102.71 292.69,-159.33 92.86,-49.64 202.74,-106.55 304,-146.99 73.75,-29.45 293.58,-83.11 333.67,-119.71 47.98,-43.81 37.15,-118.17 -31.46,-143.61 -66.89,-24.8 -153.12,-6.14 -212.76,10.15z"/>
  <path class="fil5" d="M5646.87 2073.49c24.24,65.84 -10.07,17.85 45.67,31.04l868.11 -168.47c518,-85.31 1533.44,-143.26 2074.92,-141.72 272.85,0.78 522.25,10.54 791.72,41.28l202.74 17.56c3.91,-0.6 7.89,-1.46 11.6,-2.42 42.94,-11.28 0.48,11.81 34.49,-17.22l-192.19 -118.32c-2.46,-1.4 -7.16,-3.83 -10.43,-6.22 -376.17,-69.69 -581.83,-105.61 -983.61,-112.88 -850.57,-15.37 -1614.69,109.75 -2419.31,344.94 -72,21.05 -388.13,133.57 -423.7,132.43z"/>
  <path class="fil7" d="M17142.18 15698.67l-440.98 261.26 -925.54 113.85c-6.94,1.94 -17.81,11.37 -19.91,7.22 -1.47,-2.91 -6.42,2.33 -9.04,1.77l87.88 36.58c-2.16,2.66 -10.9,11.53 -12.41,14.06 -14.45,24.31 -22.2,-16.79 -3.15,14.83 18.3,30.36 370.53,160.3 450.23,169.07 139.34,15.33 170.42,24.34 320.77,13.93 56.4,-3.91 94.74,-18.04 155.55,-31.19 149.91,-32.42 267.15,-116.95 365.33,-172.47l204.18 -159.15c61.86,-65.57 107.94,-132.91 159.33,-205.76 69.99,-99.19 83.22,-45.16 138.75,-94.92 30.29,-27.14 3.79,-20.58 51.49,-33.68 -30.88,-56.51 -7.29,-50.52 0.46,-112.36l-55.89 -45.73c1.46,-1.68 16.04,-20.92 17.01,-23.26l4.87 -17.89c17.54,-91.73 -5.76,69.22 1.18,-22.26 0.21,-2.76 0.15,-6.35 0.26,-12.64 0.11,-6.56 -0.51,-8.85 0.16,-13.19 -81.67,37.65 -245.41,167.11 -364.75,229.17l-117.7 74.36c-1.91,1.74 -5.47,5.52 -8.08,8.39z"/>
  <path class="fil8" d="M13804.31 16276.82c-69.9,41.6 -121.37,81.78 -208.68,124.1 -73.79,35.77 -143.29,69.89 -217.27,102.85 -820.81,365.56 -1893.6,278.66 -2683.85,-100.84 -379.34,-182.17 -723.76,-477.36 -777.64,-504.8 -0.95,50.88 -26.17,25.17 77.79,98.61 217.71,153.81 73.1,67.96 157.67,160.96 2.15,2.36 5.65,5.11 7.84,7.48l14.48 15.41c53.89,62.84 167.53,170.53 261.41,220.34l226.76 122.31c16.36,9.46 33.36,23.41 53.97,33.2 3.6,1.71 14.23,5.27 17.5,6.63l138.23 70.48c105.14,61.6 205.39,73.48 259.04,93.75 38.34,14.48 -8.78,10.27 57.02,29.15 90.24,25.92 20.19,-18.58 88.5,14.72 204.13,99.51 832.06,128.38 1044.18,126.24 122.27,-1.23 218.25,-10.05 324.56,-29.41 244.88,-44.6 112.56,-28.41 272.48,-77.24 95.28,-29.09 191.86,-42.09 280.98,-71.81 467.28,-155.87 433.19,-262.75 529.6,-344.2 34.83,-29.42 55.37,-49.76 92.69,-68.59 11.34,-51.85 8.59,-13.62 -17.25,-29.33z"/>
  <path class="fil8" d="M17440.2 14809.46c225.87,-160.63 643.04,-763.76 717.67,-1073.51 34.16,-141.78 107.38,-1877.03 117.3,-2120.48 9.25,-226.97 7.09,-211.4 -101.19,-346.12 -288.48,-358.95 -756.9,-495.35 -1221.33,-583.45 -285.65,-54.19 -529.97,-64.95 -832.93,-61.13l-109.37 32.17c139.43,8.04 372.61,-2.19 496.68,17.18 61.92,9.67 139.75,30.28 213.17,36.36l114.3 7.57c91.07,15.56 -23.35,8.28 67.95,27.83 118.34,25.33 254.41,31.54 379.6,62.65 88.32,21.96 309.71,87.47 373.52,131.54 33.73,18.06 -0.01,-13.32 13.48,31.69 77.19,257.56 465.66,209.35 531.63,652.07 28.32,190.05 -1.23,1157.65 -28.38,1355.04l-22.74 64.63c-34.67,51.12 -44.77,22.37 -61.54,94.59 -60.27,259.72 9.25,340.28 -197.13,813.31 -114.04,261.37 -65.03,141.04 -166.08,314.16l-58.48 118.02c-35.19,59.98 -83.67,77.19 -133.41,202.03l-35.12 79.52c-13.95,35.64 -27.06,68.91 -80.87,108.59 -10.56,71.34 -6.66,7.28 23.27,35.72z"/>
  <path class="fil9" d="M19676.7 21102.01c-21.11,-96.98 -161.67,-154.58 -256.1,-200.99 -79.39,-39.02 -140.51,-143.07 -299.91,65.33 -105.84,138.38 -89.52,179.37 -144.68,321.38 -49.12,126.43 -21.51,307.95 18.08,418.36 39.85,111.12 93.75,192.64 198.12,258.75 121.74,77.1 100.14,-6.41 146.35,-274.14 48.98,-283.75 255.3,-464.91 338.14,-588.68z"/>
  <path class="fil7" d="M11241.43 19175.09c422.54,-66.73 756.76,87.33 1064.16,250.23 73.62,39.01 395.78,179.25 482.43,179.9 232.46,1.75 347.82,-221.29 414.32,-250.29 7.82,-33.35 28.29,-63.33 7.21,-104.35l7.08 66.34c-5.97,-3.04 -13.43,-12.59 -15.34,-8.53 -1.63,3.46 -9.68,-6.25 -11.56,-7.61 -1.99,-1.43 -10.79,-7.94 -14.48,-11.09 -41.36,9.58 2.02,20.72 -81.87,86.77 -81.84,-47.84 -35.8,-28.63 -67.75,-59.12 -76.93,-73.38 -194.36,24.19 -348.95,-44.75 -147.46,-65.77 -248.82,-121.81 -393.68,-189.33 -318.69,-148.56 -498.16,-78.82 -763.82,-72.33 -125.51,3.08 -113.78,29.5 -197.39,77.93 13.71,9.9 -3.17,-1.71 20.79,4.57l121.78 35.91c-67.21,18.84 -166.47,7.36 -222.9,45.75z"/>
  <path class="fil7" d="M10675.15 23030.25c90.37,-32.97 304.55,-239.96 350.5,-314.96 -33.11,-8 -11.58,10.67 -28.75,-14.64 61.66,-49.14 96.62,-111.82 144.13,-174.1l71.11 -90.09c1.93,-2.29 4.9,-5.72 6.79,-7.84l29.97 -28.26c-63.29,-38.65 -83.19,-45.03 -204.91,16.34 -371.58,187.38 -536.46,339.55 -959.45,496.79 -186.97,69.5 -264.58,69.89 -343.31,95.53 -60.68,19.75 -32.13,25.57 -82,43.02 37.63,15.65 24.78,2.39 58.9,7.04l45.58 13.78c11.48,5.41 24.27,13.36 28.61,15.58 40.66,20.76 -8.33,-3.25 20.12,10.1l62.37 25.66c-60.22,31.87 -121.1,-45.83 -216.84,-20.13 39.24,16.8 216.58,55.15 273.19,65.79 204.75,38.46 359.71,52.86 556.08,-41.77 40.83,-19.68 163.43,-111.81 187.91,-97.83z"/>
  <path class="fil10" d="M6394.84 11835.16l82.73 15.02c25,44.73 19.31,22.55 30.14,27.51 -7.06,109.08 -33.38,178.75 -46.14,290.5 -6.69,58.63 -15.63,81.35 -16.71,146.01 -1,60.02 -4.1,126.92 28.52,161.01l-9.71 -220.11c112.12,-104.48 554.88,-283.76 707.23,-370.44 36.67,-20.87 49.14,-36.98 65.68,-112.36 20.39,-92.93 5.58,-69.53 44.14,-137.74l6.4 19.91c35.5,-35.7 80.69,-249.54 165.36,-405.25 -217.94,30.08 -940.49,457.76 -1057.65,585.94z"/>
  <path class="fil0" d="M17456.21 6877.24c2.72,3.75 5.57,8.82 7.74,11.55 2.1,2.63 5.29,7.75 7.9,10.78l111.13 70.12c40.64,14.73 41.56,16.48 66.01,32.89l218.55 102.75c3.09,1.56 6.82,3.76 9.93,5.36l337.52 172.12c2.28,1.5 5.7,4.04 7.86,5.67 2.16,1.63 5.2,4.64 7.27,6.39l65.15 53.66c212.2,124.94 632.63,417.05 790.79,590.36 32.6,35.72 59.57,74.82 95.97,94.88 13.17,7.28 126.56,50.4 137.72,48.9 22.34,-3.02 15.13,22.56 21.47,-21.46 9.96,-69.16 4.15,-2.98 -6.33,-30.3 -43.32,-112.94 -212.95,-308.68 -295.42,-394.52l-193.4 -200.28c-410.1,-402.18 -805.24,-525.65 -1389.83,-558.87z"/>
  <path class="fil7" d="M12193.72 14383.39c13.5,36.77 58.63,85.98 88.83,111.1l364.2 248.38c31.48,22.69 80.55,70.14 119.49,84.39 83.11,30.4 107.69,-7.57 149.1,-39.07 83.97,-63.9 423.01,-237.93 251.7,-463.96 -86.64,-114.34 -152.71,-79.7 -335.91,-76.56 -237.43,4.07 -719.23,-87.12 -637.42,135.72z"/>
  <path class="fil7" d="M11537.24 22543.12l-185.07 165.38c-51.53,68.6 -122.72,131.95 -128.98,190.65 157.83,130.79 992.16,201.34 1318.97,-282.49l-47.68 -20.12c-19.68,-1.95 -17.49,1.12 -40.85,5.45 -198.48,36.83 -641.21,19.68 -805.78,-41.01 18.6,-68.23 -10.35,-15.12 46.09,-52.07 17.33,-11.35 17.07,16.02 39.84,-30.83l-138.47 67.89c-24.6,14.72 -23.28,16.14 -36.33,31.06 -35.94,-19.89 -45.14,23.74 -21.73,-33.91z"/>
  <path class="fil7" d="M14263.36 18964.36c175.48,-62.62 867.85,-304.73 955.55,-384.52 6.39,-49.49 -10.23,-8.89 21.14,-39.69l118.27 -57.77c51.34,-26.08 93.64,-52.06 138.47,-79.62l586.31 -316.67c101.92,-52.71 147.69,-81.41 206.87,-169.56l18.82 -33.63c-111.66,41.7 -213.42,108.44 -309.11,165.55 -210.82,125.85 -721.67,368.21 -955.51,460.27 -382.79,150.71 -950.57,290.73 -1230.44,413.47 -52.28,22.92 -121.85,48.68 -178.19,54.49 70.78,47.63 6.96,0.39 23.39,47.05l31.72 51.63c235.89,-38.66 464.97,-140.93 553.58,-150.45 3.27,3.94 9.49,8.09 11.22,10.52l9.59 19.78c0.71,-1.92 -0.95,6.14 -1.69,9.15z"/>
  <path class="fil4" d="M15693 11703.18c-167.19,36.66 -312.74,171.41 -267.69,390.75 30.24,147.27 198.11,289.68 386.75,256.24 393.15,-69.69 297.7,-738.36 -119.06,-646.99z"/>
  <path class="fil4" d="M8731.42 11399.06c-449.55,140.38 -241.69,726.1 142.04,642.29 138.1,-30.15 287.29,-214.83 236.71,-406.41 -38.66,-146.43 -191,-294.52 -378.75,-235.88z"/>
  <path class="fil3" d="M14135.65 22605.59c-12.61,16.44 -12.46,-16 -16.75,80.54l-11.32 317.88c130.55,-2.11 457.53,-179.49 577.12,-239.93 181.31,-91.64 339.75,-186.54 508.81,-293.15 126.98,-80.07 843.27,-534.85 910.4,-672.42 -24.62,-61.47 -123.73,-260.35 -180.1,-308.14 27.64,84.72 -7.12,14.68 25.76,130.75 15.47,54.62 13.7,-5.06 10.33,55.2 -5.12,91.75 -66.8,127.94 -107.9,184.64 -69.25,95.51 -29.75,86.02 -97.23,122.59l-63.94 38.13c-2.46,1.84 -5.65,4.7 -8.1,6.56l-304.44 192.2c-2.97,1.55 -6.73,3.53 -9.61,5.16l-81.16 63c-66.59,49.62 -189.96,88.44 -281.81,155.49 -26.34,19.23 -1.73,3.63 -26.67,18.08l-407.11 203.69c-27.97,15.86 -8.53,8.85 -35.53,22.59 -30.02,15.26 -35.35,11.6 -63.06,24.89 -38.33,18.4 -17.22,21.63 -65.59,36.19 -70.72,21.3 -25.8,-2.7 -74.52,3.42 -79.54,10 33.6,11.71 -74.44,23.83 -25.35,60.57 2.67,-66.04 1.79,21.69l-0.88 13.05c-0.05,0.87 0.16,4.82 -0.91,6.86 -74.37,8.57 -59.3,44.04 -105.66,-9.91l-17.5 -202.84z"/>
  <path class="fil7" d="M13387.83 19753.97c-49.4,81.3 -250.33,153.34 -334.74,196.71 164.49,135.76 529.16,308.8 648.21,590.5l-8.07 -360.19 -1.85 -550.98c-52.48,2.55 -127.53,15.7 -178.68,38.53 -50.66,22.61 -81.87,66.94 -124.88,85.44z"/>
  <path class="fil8" d="M12094.37 19854.47l-3.52 -53.17c-85.51,-35.74 -175.49,-86.7 -263.9,-130.81 -269.1,-134.32 -804.66,-224.3 -875.17,-299.5 -44.41,-26.89 -31.52,17.79 -28.3,-62.92l-66.17 72.15 1.04 87.4 50.83 32.53c90.14,47.91 -16.81,24.75 106.54,76.68 151.41,63.75 205.01,104.1 324.25,156.43 58.09,25.49 92.79,31.52 143.13,62.12 101.04,61.39 102.22,21.72 184.65,65.08l116.44 53.65c4.12,1.55 26.34,12.16 30.38,14.07 28.59,13.53 25.33,15.57 55.07,25.76 15.13,0.04 120.44,-113.29 218.49,-59.16l6.23 -40.3z"/>
  <path class="fil8" d="M17876.89 15164.38c42.3,-3.96 37.52,-5.13 63.36,-25.86 61.84,-49.61 -5.14,-21.96 76.68,-46.53 -7.93,99.34 6.13,101.8 -24.03,197.12 -18.51,58.48 -16.46,139.69 -29.34,203.79 -12.25,60.96 -23.25,127.18 -31.92,199.07 -3.11,25.84 -2.83,14.71 -3.1,46.08 -0.55,62.26 -79.55,280.98 -117.52,311.73 -47.82,38.73 -40.15,80.83 -85.89,169.58 -8.91,17.29 -15.72,24.36 -21.34,34.51l-134.19 170.77c-56.53,46.55 -6.01,2.79 -57.18,89.76l-42.51 76.19c-13.71,47.19 -4.37,55.89 -6.5,77.16 -11.43,114.03 -65.97,121.08 -80.88,140.17 -31.12,39.84 -7.22,61.98 -26.73,118.24 -0.56,1.61 -12.87,30.53 -12.89,30.56 -1.55,3.04 -3.66,7.01 -5.3,9.93 -34.56,61.14 -59.95,56.25 -113.23,120.38l-32.72 39.63c-146.33,142.91 -30.31,101.65 -128.8,176.85 -62.62,47.81 -81.68,77.17 -152.69,96.34 -20.62,57.36 17.2,-60.04 -3.44,21.11 -0.44,1.76 -1.53,6.24 -2.09,8.14 -23.09,78.15 -136.29,139.96 -220.95,224.61l-254.77 233.07c110.56,-26.33 640.93,-506.62 759.57,-646.67 363.94,-429.66 566.96,-696.47 714.52,-1309.8 56.83,-236.2 185.42,-718.08 169.86,-974.12l-196 208.19z"/>
  <path class="fil8" d="M9978.88 12620.59c67.84,-113.85 -8.69,-347.94 29.46,-434.89l20.41 -37.67c1.1,-2.04 3.21,-6.56 5.08,-9.7 31.12,131.73 41.81,173.73 122.53,272.83 48.03,58.97 33.74,23.06 60.36,101.41 40.77,120.03 24.4,312.29 -5.65,400.7 -78.83,231.91 -74.65,478.6 -189.79,627.06 -105.91,136.54 -16.92,57.74 -143.48,191.4 -70.08,74.02 -38.57,95.35 -236.31,230.7 -121.86,83.42 -108.67,110.72 -350.22,216.81 -54.04,23.73 -100.83,42.18 -166.09,65.46 -35.42,12.62 -51.73,17.05 -89.13,27.59 -71.72,20.23 -62.54,20.19 -86.47,44.17 255.72,-9.51 722.04,-284.67 935.45,-505.09 53.29,-55.04 79.78,-118.14 138.84,-197.56l101.02 -194.74c65.22,-220.92 128.48,-419.94 154.26,-655.28 17.41,-158.99 -12.34,-276.14 -5.83,-415.84 -27.83,-126.48 -337.3,-483.75 -371.11,-503.27 69.76,382.25 92.49,314.11 76.69,775.9z"/>
  <path class="fil7" d="M19676.7 21102.01c-82.84,123.77 -289.16,304.93 -338.14,588.68 -46.21,267.73 -24.61,351.24 -146.35,274.14 -104.37,-66.11 -158.27,-147.62 -198.12,-258.75 -39.59,-110.4 -67.2,-291.93 -18.08,-418.36 55.16,-142.01 38.84,-183 144.68,-321.38 159.4,-208.41 220.52,-104.35 299.91,-65.33 94.43,46.41 234.99,104.01 256.1,200.99zm-339.23 960c-1.88,-170.95 61.83,-456.66 122.61,-584.11 37.29,-78.18 90.89,-157.29 143.66,-220 35.76,-42.5 141.18,-145.29 157.68,-182.96 -83.32,-69.95 -361.37,-258.5 -443.01,-284.11 -149.11,-46.77 -304.84,245.96 -348.99,355.94 -282.85,704.49 316.7,919.33 368.06,915.24z"/>
  <path class="fil10" d="M16842.1 12347.72c27.68,-13.83 -17.61,42.91 41.06,72.2 86.59,43.23 -26.77,-24.74 33.25,2.32 14.28,6.43 19.49,28.69 58.34,45 28.13,11.8 33.12,-4.37 67.94,33.55 61.22,66.66 13.2,61.35 71.24,98.98 14.81,-46.47 -2.15,-115.26 -4.61,-157.77 -5.11,-48.13 -37.95,-89.91 -65.11,-129.76 -12.61,-18.49 -18.64,-23.98 -30.98,-41.21 0.43,-0.29 18.1,-48.16 79.24,-7.96 29.82,19.61 43.93,42.01 65.38,64.61l57.38 -1.38c-86.95,-74.29 -155.79,-137.41 -240.31,-221.82 -54.66,-54.59 -167.77,-172.37 -256.27,-199.02l88.2 338.41c3.17,15.71 9.09,47.14 13.31,59.5l21.94 44.33z"/>
  <path class="fil7" d="M10639.78 20309.46c22.69,-25.22 20.83,-56.97 4.07,-81.21 -13.17,-19.03 -45.47,-34.07 -75.66,-40.43 -174.03,-36.62 -361.06,106.7 -454.52,233.53 -139.19,188.89 166.87,73.43 223.41,46.04l302.69 -157.93z"/>
  <path class="fil7" d="M10429.9 21167.81c134.65,4.23 418.39,-135.14 459.23,-228.82 -57.82,-127.74 -193.93,-82.38 -304.98,-30.76 -84.69,39.37 -284.37,139.97 -154.26,259.58z"/>
  <path class="fil1" d="M19337.47 22062c-51.36,4.09 -650.92,-210.75 -368.06,-915.24 44.16,-109.98 199.88,-402.71 348.99,-355.94 81.64,25.61 359.69,214.16 443.01,284.11 -7.59,-86.18 -90.73,-113.19 -203.42,-190.14 -282.37,-192.84 -360.29,-160.64 -491.83,9.85 -29.56,38.32 -61.68,63.99 -78.21,107.11 -49.74,129.75 -127.2,302.79 -133.77,446.4 -5.69,124.42 12.74,224.72 56.99,317 64.68,134.93 283.48,311.48 365.61,320.19 67.42,7.14 50.45,12.29 60.68,-23.34z"/>
  <path class="fil1" d="M8591.92 19700.65c84.85,-22.36 59.64,-17.42 122.36,-173.96 28.5,-71.14 62.39,-128.22 66.89,-218.48 -158.96,-31.07 -270.39,-124.76 -223.74,245.95 10.21,81.15 8.26,87.81 34.5,146.49z"/>
  <path class="fil11" d="M21284.14 19665.81c-63.18,19.24 -128.78,94.37 -186.16,143.5 -120.37,103.04 -441.48,418.29 -493.21,548.57l399.16 -365.38c156.13,-147.1 319.33,-240.36 422.84,-329.64 -23.9,-23.21 -1.21,-13.25 -35.78,-11.11 -4.97,0.31 -25.11,7.22 -33.7,9.2 -33.86,7.79 -40.62,6.62 -73.15,4.86z"/>
  <path class="fil8" d="M16848.68 12727.08c32.7,-45.16 27.11,-75.25 29.89,-213.7 -26.74,102.69 34.53,-46.2 54.96,171.49l34.93 -57.19 76.09 37.18c35.09,21.3 31.93,61.72 36.97,114.54 9.8,102.7 -12.7,182.69 -5.99,277.96 57.78,-61.52 42.2,-388.4 38.4,-457.58 -58.04,-37.63 -10.02,-32.31 -71.24,-98.98 -34.82,-37.92 -39.81,-21.75 -67.94,-33.55 -38.84,-16.31 -44.06,-38.57 -58.34,-45 -60.03,-27.06 53.34,40.91 -33.25,-2.32 -58.67,-29.29 -13.37,-86.03 -41.06,-72.2l6.58 379.36z"/>
  <path class="fil7" d="M17109.32 12442c82.27,1.56 15.55,93.79 48.53,174.66 41.33,-61.05 30.3,-68.47 40.56,-131.61 6.78,-41.71 31.03,28.2 4.82,-37.91l183.13 29.12c0.58,0.16 3.49,1.25 4.03,1.51 40.95,20.1 -52.94,1.25 29.69,26.1 1.12,-1.97 1.97,-8.14 2.31,-6.41l6.11 -11.89c5.63,-6.52 -8.21,-2.48 15.42,-13.07 54.52,-24.42 120.31,32.99 93.35,-40.41l-16.22 -30.83c53.85,-4.87 86.42,-9.91 99.23,-51.74 -41.81,16.3 -43.57,34.99 -170.63,43.99 -74.7,5.29 -145.02,-1.44 -219.11,-7.21 7.62,-47.16 -11.72,-16.81 37.84,-31.15l-53.14 -28.82 -57.38 1.38c-21.45,-22.61 -35.56,-45 -65.38,-64.61 -61.14,-40.2 -78.81,7.66 -79.24,7.96 12.35,17.24 18.38,22.72 30.98,41.21 27.16,39.85 59.99,81.63 65.11,129.76z"/>
  <path class="fil3 str0" d="M7065.28 22124.59c20.09,29.79 -15.18,1.63 31.35,34.46l251.76 108.99c97.7,40.05 210.76,96.94 295.95,123.99l80.31 -171.27c-104.79,5.02 -252.04,14.42 -370.61,-15.77l-222.3 -68.18c-27.7,-5.98 -11.19,5.72 -66.45,-12.21z"/>
  <path class="fil12" d="M21284.14 19665.81c32.53,1.75 39.3,2.92 73.15,-4.86 8.59,-1.97 28.73,-8.89 33.7,-9.2 34.57,-2.14 11.88,-12.1 35.78,11.11 6.13,-2.86 41.24,-20 42.43,-20.87 30.43,-22.55 17.2,-14.32 31.94,-34.36l24.4 -38.95c-16.3,-11.75 9.69,-24.08 -39.98,-4.47 5.07,-8.8 14.91,-22.32 16.04,-27.55 0.26,-1.21 0.6,-5.2 0.72,-6.49 0.13,-1.38 -0.2,-5.63 -0.2,-7.02l-3.07 -24.97c-63.06,26.9 -63.67,33.6 -114.8,73.08 -55.03,42.48 -73.22,36.9 -100.09,94.55z"/>
  <path class="fil3 str0" d="M7121.17 20225.09c-83.73,9 -384.12,309.7 -475.39,428.71 -27.87,36.34 -47.68,46.48 -78.37,81.45 -93.15,106.19 -531.7,705.38 -549.06,801.03 45.95,51.69 947.89,576.53 1046.93,588.31 55.26,17.93 38.76,6.23 66.45,12.21l222.3 68.18c118.57,30.19 265.82,20.79 370.61,15.77 73.36,-202.22 345.61,-860.16 351.48,-1034.21 10.84,-65.6 64.21,-168.39 88.72,-261.25 22.31,-84.49 50.81,-140.22 79.72,-234.74 -107.26,-77.23 -238.45,-157.46 -424.48,-275.09 -39.4,-24.93 -70.75,-52.13 -121.67,-80.95 -500.95,-283.5 -366.84,-176.6 -577.26,-109.43z"/>
  <path class="fil3 str0" d="M14161.13 21929.55l-25.48 676.04 17.5 202.84c46.36,53.95 31.29,18.49 105.66,9.91 1.07,-2.04 0.86,-5.99 0.91,-6.86l0.88 -13.05c0.88,-87.73 -27.14,38.88 -1.79,-21.69 108.03,-12.11 -5.1,-13.83 74.44,-23.83 48.72,-6.12 3.79,17.89 74.52,-3.42 48.37,-14.57 27.25,-17.79 65.59,-36.19 27.72,-13.29 33.05,-9.63 63.06,-24.89 27,-13.74 7.56,-6.73 35.53,-22.59l407.11 -203.69c24.94,-14.44 0.33,1.15 26.67,-18.08 91.85,-67.05 215.21,-105.87 281.81,-155.49l81.16 -63c2.88,-1.63 6.63,-3.61 9.61,-5.16l304.44 -192.2c2.45,-1.86 5.64,-4.72 8.1,-6.56l63.94 -38.13c67.48,-36.57 27.98,-27.08 97.23,-122.59 41.1,-56.69 102.77,-92.89 107.9,-184.64 3.37,-60.25 5.14,-0.57 -10.33,-55.2 -32.88,-116.07 1.87,-46.03 -25.76,-130.75 -14.26,-76.13 -330.46,-509.29 -381.92,-567.19 -213.03,-239.64 -174.16,-226.61 -458.8,-481.15 -97.89,-0.39 -92.58,-12.86 -218.55,4.18 -199.62,27 -124.72,44.81 -205.16,73.47 -15.72,5.6 -20.07,4.27 -35.08,8.95l-219.64 180.24c-52.01,38.87 -65.72,3.25 -70.19,41.87 -36.01,47.06 -49.79,-19.56 -65.76,92.45l-82.9 118.54c-52.85,237.8 10.79,842.16 -13.7,938.93 -1.08,4.25 -4.34,16.41 -5.23,14.39 -0.9,-2.06 -3.41,9.86 -5.77,14.5z"/>
 </g>
</svg>
